<svg width="152" height="152" viewBox="0 0 152 152" fill="none" xmlns="http://www.w3.org/2000/svg">
<g clip-path="url(#clip0_8312_21363)">
<path d="M32.8359 1.21021V3.02553C32.8359 3.69411 33.3776 4.23151 34.0461 4.23151H35.8615C36.5343 4.23151 37.0717 3.68987 37.0717 3.0213V1.21021C37.0674 0.537401 36.5258 0 35.8572 0H34.0461C33.3776 0 32.8359 0.541633 32.8359 1.21021Z" fill="#868695"/>
<path d="M45.2773 4.23145H42.4845C41.69 4.23145 41.0458 3.58731 41.0458 2.79273V1.43865C41.0458 0.644071 41.69 -6.24657e-05 42.4845 -6.24657e-05H45.2773V4.23145Z" fill="#868695"/>
<path d="M45.1504 4.23145V-6.24657e-05H47.9432C48.7378 -6.24657e-05 49.3819 0.644071 49.3819 1.43865V4.23145H45.1504Z" fill="#868695"/>
<path d="M52.1953 4.14641V4.23104H53.4859V2.94043H53.4013C53.4013 3.60901 52.8597 4.14641 52.1953 4.14641Z" fill="#868695"/>
<path d="M53.3594 4.23145V1.43865C53.3594 0.644071 54.0035 -6.24657e-05 54.7981 -6.24657e-05H56.1522C56.9467 -6.24657e-05 57.5909 0.644071 57.5909 1.43865V4.23145H53.3594Z" fill="#868695"/>
<path d="M73.8828 1.21021V3.02553C73.8828 3.69411 74.4244 4.23151 75.093 4.23151H76.9083C77.5812 4.23151 78.1186 3.68987 78.1186 3.0213V1.21021C78.1143 0.537401 77.5727 0 76.9041 0H75.093C74.4244 0 73.8828 0.541633 73.8828 1.21021Z" fill="#868695"/>
<path d="M86.3242 4.23145L82.0927 4.23145V1.43865C82.0927 0.644071 82.7368 -6.24657e-05 83.5314 -6.24657e-05H86.3242V4.23145Z" fill="#868695"/>
<path d="M86.1953 4.23145V-6.24657e-05H88.9881C89.7827 -6.24657e-05 90.4268 0.644071 90.4268 1.43865V4.23145H86.1953Z" fill="#868695"/>
<path d="M94.4043 1.21021V3.02553C94.4043 3.69411 94.9459 4.23151 95.6145 4.23151H97.4298C98.1026 4.23151 98.64 3.68987 98.64 3.0213V1.21021C98.6358 0.537401 98.0942 0 97.4256 0H95.6145C94.9459 0 94.4043 0.541633 94.4043 1.21021Z" fill="#868695"/>
<path d="M101.451 4.14641V4.23104H102.742V2.94043H102.657C102.657 3.60901 102.116 4.14641 101.451 4.14641Z" fill="#868695"/>
<path d="M106.846 4.23145L102.614 4.23145V1.43865C102.614 0.644071 103.258 -6.24657e-05 104.053 -6.24657e-05H106.846V4.23145Z" fill="#868695"/>
<path d="M106.719 4.23145V-6.24657e-05H109.512C110.306 -6.24657e-05 110.95 0.644071 110.95 1.43865V4.23145H106.719Z" fill="#868695"/>
<path d="M36.9414 5.3147V7.13002C36.9414 7.7986 37.483 8.336 38.1516 8.336H39.9669C40.6397 8.336 41.1771 7.79437 41.1771 7.12579V5.3147C41.1729 4.64189 40.6313 4.10449 39.9627 4.10449H38.1516C37.483 4.10449 36.9414 4.64613 36.9414 5.3147Z" fill="#868695"/>
<path d="M49.3819 4.10449H45.1504V8.336H49.3819V4.10449Z" fill="#868695"/>
<path d="M53.4854 4.10449H49.2539V8.336H53.4854V4.10449Z" fill="#868695"/>
<path d="M53.3594 4.10449H57.5909V6.89729C57.5909 7.69187 56.9467 8.336 56.1522 8.336H53.3594V4.10449Z" fill="#868695"/>
<path d="M86.3242 4.10449V8.336H83.5314C82.7368 8.336 82.0927 7.69187 82.0927 6.89729V4.10449H86.3242Z" fill="#868695"/>
<path d="M90.4268 4.10449H86.1953V8.336H90.4268V4.10449Z" fill="#868695"/>
<path d="M90.3008 8.33496V4.10345H93.0936C93.8882 4.10345 94.5323 4.74759 94.5323 5.54217V8.33496H90.3008Z" fill="#868695"/>
<path d="M102.742 8.33496H99.9494C99.1548 8.33496 98.5107 7.69083 98.5107 6.89625V5.54217C98.5107 4.74759 99.1548 4.10345 99.9494 4.10345H102.742V8.33496Z" fill="#868695"/>
<path d="M106.845 4.10449H102.613V8.336H106.845V4.10449Z" fill="#868695"/>
<path d="M110.95 4.10449H106.719V8.336H110.95V4.10449Z" fill="#868695"/>
<path d="M115.054 4.10449H110.822V8.336H115.054V4.10449Z" fill="#868695"/>
<path d="M114.928 8.33496V4.10345H117.721C118.515 4.10345 119.159 4.74759 119.159 5.54217V8.33496H114.928Z" fill="#868695"/>
<path d="M45.2773 12.4404H42.4845C41.69 12.4404 41.0458 11.7963 41.0458 11.0017V9.64763C41.0458 8.85306 41.69 8.20892 42.4845 8.20892H45.2773V12.4404Z" fill="#868695"/>
<path d="M45.1504 8.20898H49.3819V11.0018C49.3819 11.7964 48.7378 12.4405 47.9432 12.4405H45.1504V8.20898Z" fill="#868695"/>
<path d="M57.4629 12.4404V9.64763C57.4629 8.85306 58.107 8.20892 58.9016 8.20892H60.2557C61.0503 8.20892 61.6944 8.85306 61.6944 9.64763V12.4404H57.4629Z" fill="#868695"/>
<path d="M77.9863 9.4192V11.2345C77.9863 11.9031 78.528 12.4405 79.1965 12.4405H81.0119C81.6847 12.4405 82.2221 11.8989 82.2221 11.2303V9.4192C82.2178 8.74639 81.6762 8.20898 81.0076 8.20898H79.1965C78.528 8.20898 77.9863 8.75062 77.9863 9.4192Z" fill="#868695"/>
<path d="M90.4277 8.20898V11.0018C90.4277 11.7964 89.7836 12.4405 88.989 12.4405H87.6349C86.8404 12.4405 86.1962 11.7964 86.1962 11.0018V8.20898H90.4277Z" fill="#868695"/>
<path d="M110.95 8.20898H106.719V12.4405H110.95V8.20898Z" fill="#868695"/>
<path d="M115.054 8.20898H110.822V12.4405H115.054V8.20898Z" fill="#868695"/>
<path d="M114.928 8.20898H119.159V11.0018C119.159 11.7964 118.515 12.4405 117.721 12.4405H114.928V8.20898Z" fill="#868695"/>
<path d="M61.6953 12.3135V15.1063C61.6953 15.9009 61.0512 16.545 60.2566 16.545H58.9025C58.1079 16.545 57.4638 15.9009 57.4638 15.1063V12.3135H61.6953Z" fill="#868695"/>
<path d="M69.9062 16.5449H67.1135C66.3189 16.5449 65.6747 15.9008 65.6747 15.1062V13.7521C65.6747 12.9575 66.3189 12.3134 67.1135 12.3134H69.9062V16.5449Z" fill="#868695"/>
<path d="M69.7773 16.5449V12.3134H72.5701C73.3647 12.3134 74.0089 12.9575 74.0089 13.7521V16.5449H69.7773Z" fill="#868695"/>
<path d="M80.9277 16.4609V16.5455H82.2183V15.2549H82.1337C82.1337 15.9235 81.5921 16.4609 80.9277 16.4609Z" fill="#868695"/>
<path d="M82.0918 16.5449V13.7521C82.0918 12.9575 82.7359 12.3134 83.5305 12.3134H84.8846C85.6792 12.3134 86.3233 12.9575 86.3233 13.7521V16.5449H82.0918Z" fill="#868695"/>
<path d="M90.3008 13.5237V15.339C90.3008 16.0076 90.8424 16.545 91.511 16.545H93.3263C93.9991 16.545 94.5365 16.0034 94.5365 15.3348V13.5237C94.5323 12.8509 93.9907 12.3135 93.3221 12.3135H91.511C90.8424 12.3135 90.3008 12.8551 90.3008 13.5237Z" fill="#868695"/>
<path d="M97.3457 16.4609V16.5455H98.6363V15.2549H98.5517C98.5517 15.9235 98.01 16.4609 97.3457 16.4609Z" fill="#868695"/>
<path d="M102.742 16.5449H98.5107V13.7521C98.5107 12.9575 99.1548 12.3134 99.9494 12.3134H102.742V16.5449Z" fill="#868695"/>
<path d="M106.845 12.3135H102.613V16.545H106.845V12.3135Z" fill="#868695"/>
<path d="M110.95 12.3135H106.719V16.545H110.95V12.3135Z" fill="#868695"/>
<path d="M37.0684 20.6494H32.8369V17.8566C32.8369 17.062 33.481 16.4179 34.2756 16.4179H37.0684V20.6494Z" fill="#868695"/>
<path d="M41.1729 16.418H36.9414V20.6495H41.1729V16.418Z" fill="#868695"/>
<path d="M45.2764 16.418H41.0449V20.6495H45.2764V16.418Z" fill="#868695"/>
<path d="M49.3819 16.418H45.1504V20.6495H49.3819V16.418Z" fill="#868695"/>
<path d="M49.2539 20.6494V16.4179H52.0467C52.8413 16.4179 53.4854 17.062 53.4854 17.8566V20.6494H49.2539Z" fill="#868695"/>
<path d="M61.5684 17.6282V19.4435C61.5684 20.1121 62.11 20.6495 62.7786 20.6495H64.5939C65.2667 20.6495 65.8041 20.1078 65.8041 19.4393V17.6282C65.7999 16.9554 65.2582 16.418 64.5897 16.418H62.7786C62.11 16.418 61.5684 16.9596 61.5684 17.6282Z" fill="#868695"/>
<path d="M82.2188 20.6494H79.426C78.6314 20.6494 77.9872 20.0053 77.9872 19.2107V17.8566C77.9872 17.062 78.6314 16.4179 79.426 16.4179H82.2188V20.6494Z" fill="#868695"/>
<path d="M86.3233 16.418H82.0918V20.6495H86.3233V16.418Z" fill="#868695"/>
<path d="M86.1953 20.6494V16.4179H88.9881C89.7827 16.4179 90.4268 17.062 90.4268 17.8566V20.6494H86.1953Z" fill="#868695"/>
<path d="M98.6367 20.6494H95.8439C95.0493 20.6494 94.4052 20.0053 94.4052 19.2107V17.8566C94.4052 17.062 95.0493 16.4179 95.8439 16.4179H98.6367V20.6494Z" fill="#868695"/>
<path d="M102.741 16.418H98.5098V20.6495H102.741V16.418Z" fill="#868695"/>
<path d="M110.951 16.418V19.2108C110.951 20.0053 110.307 20.6495 109.512 20.6495H108.158C107.364 20.6495 106.72 20.0053 106.72 19.2108V16.418H110.951Z" fill="#868695"/>
<path d="M37.0674 20.5225H32.8359V24.754H37.0674V20.5225Z" fill="#868695"/>
<path d="M41.1729 20.5225H36.9414V24.754H41.1729V20.5225Z" fill="#868695"/>
<path d="M45.2764 20.5225H41.0449V24.754H45.2764V20.5225Z" fill="#868695"/>
<path d="M74.0098 24.7539H71.217C70.4224 24.7539 69.7783 24.1098 69.7783 23.3152V21.9611C69.7783 21.1665 70.4224 20.5224 71.217 20.5224H74.0098V24.7539Z" fill="#868695"/>
<path d="M73.8828 24.7539V20.5224H76.6756C77.4702 20.5224 78.1143 21.1665 78.1143 21.9611V24.7539H73.8828Z" fill="#868695"/>
<path d="M102.741 20.5225H98.5098V24.754H102.741V20.5225Z" fill="#868695"/>
<path d="M115.057 24.7539H112.264C111.469 24.7539 110.825 24.1098 110.825 23.3152V21.9611C110.825 21.1665 111.469 20.5224 112.264 20.5224H115.057V24.7539Z" fill="#868695"/>
<path d="M114.928 24.7539V20.5224H117.721C118.515 20.5224 119.159 21.1665 119.159 21.9611V24.7539H114.928Z" fill="#868695"/>
<path d="M37.0684 24.6279V27.4207C37.0684 28.2153 36.4242 28.8594 35.6296 28.8594H34.2756C33.481 28.8594 32.8369 28.2153 32.8369 27.4207V24.6279H37.0684Z" fill="#868695"/>
<path d="M45.2773 24.6279V27.4207C45.2773 28.2153 44.6332 28.8594 43.8386 28.8594H42.4845C41.69 28.8594 41.0458 28.2153 41.0458 27.4207V24.6279H45.2773Z" fill="#868695"/>
<path d="M49.2539 28.8594V26.0666C49.2539 25.272 49.898 24.6279 50.6926 24.6279H52.0467C52.8413 24.6279 53.4854 25.272 53.4854 26.0666V28.8594H49.2539Z" fill="#868695"/>
<path d="M57.4629 25.8381V27.6535C57.4629 28.322 58.0045 28.8594 58.6731 28.8594H60.4884C61.1612 28.8594 61.6986 28.3178 61.6986 27.6492V25.8381C61.6944 25.1653 61.1528 24.6279 60.4842 24.6279H58.6731C58.0045 24.6279 57.4629 25.1696 57.4629 25.8381Z" fill="#868695"/>
<path d="M64.5098 28.7743V28.859H65.8004V27.5684H65.7157C65.7157 28.2369 65.1741 28.7743 64.5098 28.7743Z" fill="#868695"/>
<path d="M65.6738 28.8594V26.0666C65.6738 25.272 66.318 24.6279 67.1125 24.6279H68.4666C69.2612 24.6279 69.9053 25.272 69.9053 26.0666V28.8594H65.6738Z" fill="#868695"/>
<path d="M78.1152 24.6279V27.4207C78.1152 28.2153 77.4711 28.8594 76.6765 28.8594H75.3224C74.5279 28.8594 73.8837 28.2153 73.8837 27.4207V24.6279H78.1152Z" fill="#868695"/>
<path d="M82.0918 28.8594V26.0666C82.0918 25.272 82.7359 24.6279 83.5305 24.6279H84.8846C85.6792 24.6279 86.3233 25.272 86.3233 26.0666V28.8594H82.0918Z" fill="#868695"/>
<path d="M90.3008 25.8381V27.6535C90.3008 28.322 90.8424 28.8594 91.511 28.8594H93.3263C93.9991 28.8594 94.5365 28.3178 94.5365 27.6492V25.8381C94.5323 25.1653 93.9907 24.6279 93.3221 24.6279H91.511C90.8424 24.6279 90.3008 25.1696 90.3008 25.8381Z" fill="#868695"/>
<path d="M102.741 24.6279H98.5098V28.8594H102.741V24.6279Z" fill="#868695"/>
<path d="M106.719 25.8381V27.6535C106.719 28.322 107.26 28.8594 107.929 28.8594H109.744C110.417 28.8594 110.954 28.3178 110.954 27.6492V25.8381C110.95 25.1653 110.409 24.6279 109.74 24.6279H107.929C107.26 24.6279 106.719 25.1696 106.719 25.8381Z" fill="#868695"/>
<path d="M119.159 24.6279H114.928V28.8594H119.159V24.6279Z" fill="#868695"/>
<path d="M53.4854 28.7314H49.2539V32.963H53.4854V28.7314Z" fill="#868695"/>
<path d="M53.3594 32.9629V28.7314H56.1522C56.9467 28.7314 57.5909 29.3755 57.5909 30.1701V32.9629H53.3594Z" fill="#868695"/>
<path d="M65.8008 32.9629H61.5693V30.1701C61.5693 29.3755 62.2134 28.7314 63.008 28.7314H65.8008V32.9629Z" fill="#868695"/>
<path d="M69.9053 28.7314H65.6738V32.963H69.9053V28.7314Z" fill="#868695"/>
<path d="M80.9277 32.8788V32.9635H82.2183V31.6729H82.1337C82.1337 32.3414 81.5921 32.8788 80.9277 32.8788Z" fill="#868695"/>
<path d="M86.3233 28.7314H82.0918V32.963H86.3233V28.7314Z" fill="#868695"/>
<path d="M86.1953 32.9629V28.7314H88.9881C89.7827 28.7314 90.4268 29.3755 90.4268 30.1701V32.9629H86.1953Z" fill="#868695"/>
<path d="M102.741 28.7314H98.5098V32.963H102.741V28.7314Z" fill="#868695"/>
<path d="M119.159 28.7314H114.928V32.963H119.159V28.7314Z" fill="#868695"/>
<path d="M8.33789 37.0674H5.5451C4.75052 37.0674 4.10638 36.4232 4.10638 35.6287V34.2746C4.10638 33.48 4.75052 32.8359 5.5451 32.8359H8.33789V37.0674Z" fill="#868695"/>
<path d="M12.4405 32.8369H8.20898V37.0684H12.4405V32.8369Z" fill="#868695"/>
<path d="M16.546 32.8369H12.3145V37.0684H16.546V32.8369Z" fill="#868695"/>
<path d="M20.6495 32.8369H16.418V37.0684H20.6495V32.8369Z" fill="#868695"/>
<path d="M24.7549 32.8369H20.5234V37.0684H24.7549V32.8369Z" fill="#868695"/>
<path d="M28.8585 32.8369H24.627V37.0684H28.8585V32.8369Z" fill="#868695"/>
<path d="M28.7324 37.0674V32.8359H31.5252C32.3198 32.8359 32.9639 33.48 32.9639 34.2746V37.0674H28.7324Z" fill="#868695"/>
<path d="M41.0449 37.0674V34.2746C41.0449 33.48 41.6891 32.8359 42.4836 32.8359H43.8377C44.6323 32.8359 45.2764 33.48 45.2764 34.2746V37.0674H41.0449Z" fill="#868695"/>
<path d="M48.0918 36.9833V37.068H49.3824V35.7773H49.2978C49.2978 36.4459 48.7561 36.9833 48.0918 36.9833Z" fill="#868695"/>
<path d="M53.4854 32.8369H49.2539V37.0684H53.4854V32.8369Z" fill="#868695"/>
<path d="M57.5909 32.8369H53.3594V37.0684H57.5909V32.8369Z" fill="#868695"/>
<path d="M65.7999 32.8369H61.5684V37.0684H65.7999V32.8369Z" fill="#868695"/>
<path d="M69.9053 32.8369H65.6738V37.0684H69.9053V32.8369Z" fill="#868695"/>
<path d="M69.7773 37.0674V32.8359H72.5701C73.3647 32.8359 74.0089 33.48 74.0089 34.2746V37.0674H69.7773Z" fill="#868695"/>
<path d="M82.2188 37.0674H79.426C78.6314 37.0674 77.9872 36.4232 77.9872 35.6287V34.2746C77.9872 33.48 78.6314 32.8359 79.426 32.8359H82.2188V37.0674Z" fill="#868695"/>
<path d="M82.0918 32.8369H86.3233V35.6297C86.3233 36.4243 85.6792 37.0684 84.8846 37.0684H82.0918V32.8369Z" fill="#868695"/>
<path d="M90.3008 34.0471V35.8624C90.3008 36.531 90.8424 37.0684 91.511 37.0684H93.3263C93.9991 37.0684 94.5365 36.5268 94.5365 35.8582V34.0471C94.5323 33.3743 93.9907 32.8369 93.3221 32.8369H91.511C90.8424 32.8369 90.3008 33.3785 90.3008 34.0471Z" fill="#868695"/>
<path d="M102.742 32.8369V37.0684H99.9494C99.1548 37.0684 98.5107 36.4243 98.5107 35.6297V32.8369H102.742Z" fill="#868695"/>
<path d="M106.845 32.8369H102.613V37.0684H106.845V32.8369Z" fill="#868695"/>
<path d="M106.719 37.0674V32.8359H109.512C110.306 32.8359 110.95 33.48 110.95 34.2746V37.0674H106.719Z" fill="#868695"/>
<path d="M119.159 32.8369H114.928V37.0684H119.159V32.8369Z" fill="#868695"/>
<path d="M131.475 37.0674H127.243V34.2746C127.243 33.48 127.887 32.8359 128.682 32.8359H131.475V37.0674Z" fill="#868695"/>
<path d="M131.346 37.0674V32.8359H134.138C134.933 32.8359 135.577 33.48 135.577 34.2746V37.0674H131.346Z" fill="#868695"/>
<path d="M147.764 34.0471V35.8624C147.764 36.531 148.305 37.0684 148.974 37.0684H150.789C151.462 37.0684 151.999 36.5268 151.999 35.8582V34.0471C151.995 33.3743 151.454 32.8369 150.785 32.8369H148.974C148.305 32.8369 147.764 33.3785 147.764 34.0471Z" fill="#868695"/>
<path d="M32.9639 36.9414H28.7324V41.1729H32.9639V36.9414Z" fill="#868695"/>
<path d="M45.2764 36.9414H41.0449V41.1729H45.2764V36.9414Z" fill="#868695"/>
<path d="M49.3819 36.9414H45.1504V41.1729H49.3819V36.9414Z" fill="#868695"/>
<path d="M53.4854 36.9414H49.2539V41.1729H53.4854V36.9414Z" fill="#868695"/>
<path d="M53.3594 36.9414H57.5909V39.7342C57.5909 40.5288 56.9467 41.1729 56.1522 41.1729H53.3594V36.9414Z" fill="#868695"/>
<path d="M65.8008 36.9414V41.1729H63.008C62.2134 41.1729 61.5693 40.5288 61.5693 39.7342V36.9414H65.8008Z" fill="#868695"/>
<path d="M69.9053 36.9414H65.6738V41.1729H69.9053V36.9414Z" fill="#868695"/>
<path d="M69.7773 36.9414H74.0089V39.7342C74.0089 40.5288 73.3647 41.1729 72.5701 41.1729H69.7773V36.9414Z" fill="#868695"/>
<path d="M94.4043 38.1516V39.9669C94.4043 40.6355 94.9459 41.1729 95.6145 41.1729H97.4298C98.1026 41.1729 98.64 40.6313 98.64 39.9627V38.1516C98.6358 37.4788 98.0942 36.9414 97.4256 36.9414H95.6145C94.9459 36.9414 94.4043 37.483 94.4043 38.1516Z" fill="#868695"/>
<path d="M106.845 36.9414H102.613V41.1729H106.845V36.9414Z" fill="#868695"/>
<path d="M110.95 36.9414H106.719V41.1729H110.95V36.9414Z" fill="#868695"/>
<path d="M113.764 41.0878V41.1724H115.054V39.8818H114.97C114.97 40.5504 114.428 41.0878 113.764 41.0878Z" fill="#868695"/>
<path d="M119.159 36.9414H114.928V41.1729H119.159V36.9414Z" fill="#868695"/>
<path d="M131.475 36.9414V39.7342C131.475 40.5288 130.83 41.1729 130.036 41.1729H128.682C127.887 41.1729 127.243 40.5288 127.243 39.7342V36.9414H131.475Z" fill="#868695"/>
<path d="M139.555 41.1729V38.3801C139.555 37.5855 140.199 36.9413 140.993 36.9413H142.347C143.142 36.9413 143.786 37.5855 143.786 38.3801V41.1729H139.555Z" fill="#868695"/>
<path d="M8.33789 45.2773H4.10638V42.4845C4.10638 41.69 4.75052 41.0458 5.5451 41.0458H8.33789V45.2773Z" fill="#868695"/>
<path d="M12.4405 41.0459H8.20898V45.2774H12.4405V41.0459Z" fill="#868695"/>
<path d="M12.3145 45.2773V41.0458H15.1072C15.9018 41.0458 16.546 41.69 16.546 42.4845V45.2773H12.3145Z" fill="#868695"/>
<path d="M28.8594 45.2773H26.0666C25.272 45.2773 24.6279 44.6332 24.6279 43.8386V42.4845C24.6279 41.69 25.272 41.0458 26.0666 41.0458H28.8594V45.2773Z" fill="#868695"/>
<path d="M32.9639 41.0459H28.7324V45.2774H32.9639V41.0459Z" fill="#868695"/>
<path d="M32.8359 45.2773V41.0458H35.6287C36.4233 41.0458 37.0674 41.69 37.0674 42.4845V45.2773H32.8359Z" fill="#868695"/>
<path d="M45.2764 41.0459H41.0449V45.2774H45.2764V41.0459Z" fill="#868695"/>
<path d="M49.3819 41.0459H45.1504V45.2774H49.3819V41.0459Z" fill="#868695"/>
<path d="M72.7188 45.1923V45.2769H74.0094V43.9863H73.9247C73.9247 44.6549 73.3831 45.1923 72.7188 45.1923Z" fill="#868695"/>
<path d="M78.1152 45.2773H73.8837V42.4845C73.8837 41.69 74.5279 41.0458 75.3224 41.0458H78.1152V45.2773Z" fill="#868695"/>
<path d="M82.2178 41.0459H77.9863V45.2774H82.2178V41.0459Z" fill="#868695"/>
<path d="M82.0918 45.2773V41.0458H84.8846C85.6792 41.0458 86.3233 41.69 86.3233 42.4845V45.2773H82.0918Z" fill="#868695"/>
<path d="M89.1367 45.1923V45.2769H90.4273V43.9863H90.3427C90.3427 44.6549 89.8011 45.1923 89.1367 45.1923Z" fill="#868695"/>
<path d="M90.3008 45.2773V42.4845C90.3008 41.69 90.9449 41.0458 91.7395 41.0458H93.0936C93.8882 41.0458 94.5323 41.69 94.5323 42.4845V45.2773H90.3008Z" fill="#868695"/>
<path d="M106.846 41.0459V45.2774H104.053C103.258 45.2774 102.614 44.6333 102.614 43.8387V41.0459H106.846Z" fill="#868695"/>
<path d="M110.95 41.0459H106.719V45.2774H110.95V41.0459Z" fill="#868695"/>
<path d="M115.054 41.0459H110.822V45.2774H115.054V41.0459Z" fill="#868695"/>
<path d="M114.928 41.0459H119.159V43.8387C119.159 44.6333 118.515 45.2774 117.721 45.2774H114.928V41.0459Z" fill="#868695"/>
<path d="M123.137 45.2773V42.4845C123.137 41.69 123.781 41.0458 124.575 41.0458H125.93C126.724 41.0458 127.368 41.69 127.368 42.4845V45.2773H123.137Z" fill="#868695"/>
<path d="M143.787 41.0459V45.2774H140.994C140.2 45.2774 139.556 44.6333 139.556 43.8387V41.0459H143.787Z" fill="#868695"/>
<path d="M147.892 41.0459H143.66V45.2774H147.892V41.0459Z" fill="#868695"/>
<path d="M147.764 45.2773V41.0458H150.556C151.351 41.0458 151.995 41.69 151.995 42.4845V45.2773H147.764Z" fill="#868695"/>
<path d="M8.33698 45.1504H4.10547V49.3819H8.33698V45.1504Z" fill="#868695"/>
<path d="M16.546 45.1504H12.3145V49.3819H16.546V45.1504Z" fill="#868695"/>
<path d="M32.9648 45.1504V49.3819H30.172C29.3775 49.3819 28.7333 48.7378 28.7333 47.9432V45.1504H32.9648Z" fill="#868695"/>
<path d="M32.8359 45.1504H37.0674V47.9432C37.0674 48.7378 36.4233 49.3819 35.6287 49.3819H32.8359V45.1504Z" fill="#868695"/>
<path d="M45.2773 45.1504V49.3819H42.4845C41.69 49.3819 41.0458 48.7378 41.0458 47.9432V45.1504H45.2773Z" fill="#868695"/>
<path d="M49.3819 45.1504H45.1504V49.3819H49.3819V45.1504Z" fill="#868695"/>
<path d="M49.2539 49.3818V45.1503H52.0467C52.8413 45.1503 53.4854 45.7945 53.4854 46.589V49.3818H49.2539Z" fill="#868695"/>
<path d="M68.6133 49.2968V49.3814H69.9039V48.0908H69.8193C69.8193 48.7594 69.2776 49.2968 68.6133 49.2968Z" fill="#868695"/>
<path d="M74.0098 49.3818H69.7783V46.589C69.7783 45.7945 70.4224 45.1503 71.217 45.1503H74.0098V49.3818Z" fill="#868695"/>
<path d="M73.8828 45.1504H78.1143V47.9432C78.1143 48.7378 77.4702 49.3819 76.6756 49.3819H73.8828V45.1504Z" fill="#868695"/>
<path d="M90.4277 49.3818H87.6349C86.8404 49.3818 86.1962 48.7377 86.1962 47.9431V46.589C86.1962 45.7945 86.8404 45.1503 87.6349 45.1503H90.4277V49.3818Z" fill="#868695"/>
<path d="M94.5323 45.1504H90.3008V49.3819H94.5323V45.1504Z" fill="#868695"/>
<path d="M94.4043 49.3818V45.1503H97.1971C97.9917 45.1503 98.6358 45.7945 98.6358 46.589V49.3818H94.4043Z" fill="#868695"/>
<path d="M110.95 45.1504H106.719V49.3819H110.95V45.1504Z" fill="#868695"/>
<path d="M115.054 45.1504H110.822V49.3819H115.054V45.1504Z" fill="#868695"/>
<path d="M121.973 49.2968V49.3814H123.263V48.0908H123.179C123.179 48.7594 122.637 49.2968 121.973 49.2968Z" fill="#868695"/>
<path d="M127.368 45.1504H123.137V49.3819H127.368V45.1504Z" fill="#868695"/>
<path d="M131.474 45.1504H127.242V49.3819H131.474V45.1504Z" fill="#868695"/>
<path d="M131.346 49.3818V45.1503H134.138C134.933 45.1503 135.577 45.7945 135.577 46.589V49.3818H131.346Z" fill="#868695"/>
<path d="M147.893 45.1504V47.9432C147.893 48.7378 147.248 49.3819 146.454 49.3819H145.1C144.305 49.3819 143.661 48.7378 143.661 47.9432V45.1504H147.893Z" fill="#868695"/>
<path d="M8.33698 49.2549H4.10547V53.4864H8.33698V49.2549Z" fill="#868695"/>
<path d="M12.4405 49.2549H8.20898V53.4864H12.4405V49.2549Z" fill="#868695"/>
<path d="M16.546 49.2549H12.3145V53.4864H16.546V49.2549Z" fill="#868695"/>
<path d="M24.7559 53.4863H20.5244V50.6935C20.5244 49.899 21.1685 49.2548 21.9631 49.2548H24.7559V53.4863Z" fill="#868695"/>
<path d="M24.627 53.4863V49.2548H27.4197C28.2143 49.2548 28.8585 49.899 28.8585 50.6935V53.4863H24.627Z" fill="#868695"/>
<path d="M57.5918 53.4863H54.799C54.0044 53.4863 53.3603 52.8422 53.3603 52.0476V50.6935C53.3603 49.899 54.0044 49.2548 54.799 49.2548H57.5918V53.4863Z" fill="#868695"/>
<path d="M57.4629 53.4863V49.2548H60.2557C61.0503 49.2548 61.6944 49.899 61.6944 50.6935V53.4863H57.4629Z" fill="#868695"/>
<path d="M69.9062 53.4863H65.6747V50.6935C65.6747 49.899 66.3189 49.2548 67.1135 49.2548H69.9062V53.4863Z" fill="#868695"/>
<path d="M69.7773 49.2549H74.0089V52.0477C74.0089 52.8423 73.3647 53.4864 72.5701 53.4864H69.7773V49.2549Z" fill="#868695"/>
<path d="M77.9863 50.4651V52.2804C77.9863 52.949 78.528 53.4864 79.1965 53.4864H81.0119C81.6847 53.4864 82.2221 52.9448 82.2221 52.2762V50.4651C82.2178 49.7923 81.6762 49.2549 81.0076 49.2549H79.1965C78.528 49.2549 77.9863 49.7965 77.9863 50.4651Z" fill="#868695"/>
<path d="M94.5332 49.2549V52.0477C94.5332 52.8423 93.8891 53.4864 93.0945 53.4864H91.7404C90.9458 53.4864 90.3017 52.8423 90.3017 52.0477V49.2549H94.5332Z" fill="#868695"/>
<path d="M106.846 53.4863H104.053C103.258 53.4863 102.614 52.8422 102.614 52.0476V50.6935C102.614 49.899 103.258 49.2548 104.053 49.2548H106.846V53.4863Z" fill="#868695"/>
<path d="M110.95 49.2549H106.719V53.4864H110.95V49.2549Z" fill="#868695"/>
<path d="M110.822 49.2549H115.054V52.0477C115.054 52.8423 114.41 53.4864 113.615 53.4864H110.822V49.2549Z" fill="#868695"/>
<path d="M123.266 53.4863H119.034V50.6935C119.034 49.899 119.678 49.2548 120.473 49.2548H123.266V53.4863Z" fill="#868695"/>
<path d="M123.137 49.2549H127.368V52.0477C127.368 52.8423 126.724 53.4864 125.93 53.4864H123.137V49.2549Z" fill="#868695"/>
<path d="M135.578 49.2549V53.4864H132.785C131.991 53.4864 131.347 52.8423 131.347 52.0477V49.2549H135.578Z" fill="#868695"/>
<path d="M139.683 49.2549H135.451V53.4864H139.683V49.2549Z" fill="#868695"/>
<path d="M139.555 53.4863V49.2548H142.347C143.142 49.2548 143.786 49.899 143.786 50.6935V53.4863H139.555Z" fill="#868695"/>
<path d="M147.764 50.4651V52.2804C147.764 52.949 148.305 53.4864 148.974 53.4864H150.789C151.462 53.4864 151.999 52.9448 151.999 52.2762V50.4651C151.995 49.7923 151.454 49.2549 150.785 49.2549H148.974C148.305 49.2549 147.764 49.7965 147.764 50.4651Z" fill="#868695"/>
<path d="M8.33698 53.3594H4.10547V57.5909H8.33698V53.3594Z" fill="#868695"/>
<path d="M12.4405 53.3594H8.20898V57.5909H12.4405V53.3594Z" fill="#868695"/>
<path d="M12.3145 53.3594H16.546V56.1522C16.546 56.9467 15.9018 57.5909 15.1072 57.5909H12.3145V53.3594Z" fill="#868695"/>
<path d="M24.7549 53.3594H20.5234V57.5909H24.7549V53.3594Z" fill="#868695"/>
<path d="M28.7324 54.5696V56.3849C28.7324 57.0535 29.2741 57.5909 29.9426 57.5909H31.7579C32.4308 57.5909 32.9682 57.0492 32.9682 56.3807V54.5696C32.9639 53.8968 32.4223 53.3594 31.7537 53.3594H29.9426C29.2741 53.3594 28.7324 53.901 28.7324 54.5696Z" fill="#868695"/>
<path d="M48.0918 57.5058V57.5904H49.3824V56.2998H49.2978C49.2978 56.9684 48.7561 57.5058 48.0918 57.5058Z" fill="#868695"/>
<path d="M49.2539 57.5908V54.798C49.2539 54.0034 49.898 53.3593 50.6926 53.3593H52.0467C52.8413 53.3593 53.4854 54.0034 53.4854 54.798V57.5908H49.2539Z" fill="#868695"/>
<path d="M61.6953 53.3594V56.1522C61.6953 56.9467 61.0512 57.5909 60.2566 57.5909H58.9025C58.1079 57.5909 57.4638 56.9467 57.4638 56.1522V53.3594H61.6953Z" fill="#868695"/>
<path d="M69.9062 53.3594V56.1522C69.9062 56.9467 69.2621 57.5909 68.4675 57.5909H67.1135C66.3189 57.5909 65.6747 56.9467 65.6747 56.1522V53.3594H69.9062Z" fill="#868695"/>
<path d="M73.8828 54.5696V56.3849C73.8828 57.0535 74.4244 57.5909 75.093 57.5909H76.9083C77.5812 57.5909 78.1186 57.0492 78.1186 56.3807V54.5696C78.1143 53.8968 77.5727 53.3594 76.9041 53.3594H75.093C74.4244 53.3594 73.8828 53.901 73.8828 54.5696Z" fill="#868695"/>
<path d="M82.0918 54.5696V56.3849C82.0918 57.0535 82.6334 57.5909 83.302 57.5909H85.1173C85.7901 57.5909 86.3275 57.0492 86.3275 56.3807V54.5696C86.3233 53.8968 85.7817 53.3594 85.1131 53.3594H83.302C82.6334 53.3594 82.0918 53.901 82.0918 54.5696Z" fill="#868695"/>
<path d="M94.4043 54.5696V56.3849C94.4043 57.0535 94.9459 57.5909 95.6145 57.5909H97.4298C98.1026 57.5909 98.64 57.0492 98.64 56.3807V54.5696C98.6358 53.8968 98.0942 53.3594 97.4256 53.3594H95.6145C94.9459 53.3594 94.4043 53.901 94.4043 54.5696Z" fill="#868695"/>
<path d="M110.951 53.3594V56.1522C110.951 56.9467 110.307 57.5909 109.512 57.5909H108.158C107.364 57.5909 106.72 56.9467 106.72 56.1522V53.3594H110.951Z" fill="#868695"/>
<path d="M123.266 53.3594V56.1522C123.266 56.9467 122.621 57.5909 121.827 57.5909H120.473C119.678 57.5909 119.034 56.9467 119.034 56.1522V53.3594H123.266Z" fill="#868695"/>
<path d="M139.683 53.3594H135.451V57.5909H139.683V53.3594Z" fill="#868695"/>
<path d="M139.555 53.3594H143.786V56.1522C143.786 56.9467 143.142 57.5909 142.347 57.5909H139.555V53.3594Z" fill="#868695"/>
<path d="M8.33789 57.4639V60.2567C8.33789 61.0512 7.69376 61.6954 6.89918 61.6954H5.5451C4.75052 61.6954 4.10638 61.0512 4.10638 60.2567V57.4639H8.33789Z" fill="#868695"/>
<path d="M24.7549 57.4639H20.5234V61.6954H24.7549V57.4639Z" fill="#868695"/>
<path d="M24.627 61.6953V57.4638H27.4197C28.2143 57.4638 28.8585 58.1079 28.8585 58.9025V61.6953H24.627Z" fill="#868695"/>
<path d="M37.0684 61.6953H34.2756C33.481 61.6953 32.8369 61.0512 32.8369 60.2566V58.9025C32.8369 58.1079 33.481 57.4638 34.2756 57.4638H37.0684V61.6953Z" fill="#868695"/>
<path d="M41.1729 57.4639H36.9414V61.6954H41.1729V57.4639Z" fill="#868695"/>
<path d="M45.2764 57.4639H41.0449V61.6954H45.2764V57.4639Z" fill="#868695"/>
<path d="M49.3819 57.4639H45.1504V61.6954H49.3819V57.4639Z" fill="#868695"/>
<path d="M53.4854 57.4639H49.2539V61.6954H53.4854V57.4639Z" fill="#868695"/>
<path d="M53.3594 61.6953V57.4638H56.1522C56.9467 57.4638 57.5909 58.1079 57.5909 58.9025V61.6953H53.3594Z" fill="#868695"/>
<path d="M115.057 61.6953H110.825V58.9025C110.825 58.1079 111.469 57.4638 112.264 57.4638H115.057V61.6953Z" fill="#868695"/>
<path d="M114.928 61.6953V57.4638H117.721C118.515 57.4638 119.159 58.1079 119.159 58.9025V61.6953H114.928Z" fill="#868695"/>
<path d="M139.684 57.4639V60.2567C139.684 61.0512 139.039 61.6954 138.245 61.6954H136.891C136.096 61.6954 135.452 61.0512 135.452 60.2567V57.4639H139.684Z" fill="#868695"/>
<path d="M147.893 61.6953H143.661V58.9025C143.661 58.1079 144.305 57.4638 145.1 57.4638H147.893V61.6953Z" fill="#868695"/>
<path d="M147.764 61.6953V57.4638H150.556C151.351 57.4638 151.995 58.1079 151.995 58.9025V61.6953H147.764Z" fill="#868695"/>
<path d="M0 62.7786V64.5939C0 65.2625 0.541633 65.7999 1.21021 65.7999H3.02553C3.69834 65.7999 4.23574 65.2582 4.23574 64.5897V62.7786C4.23151 62.1058 3.68987 61.5684 3.0213 61.5684H1.21021C0.541633 61.5684 0 62.11 0 62.7786Z" fill="#868695"/>
<path d="M8.20898 62.7786V64.5939C8.20898 65.2625 8.75062 65.7999 9.4192 65.7999H11.2345C11.9073 65.7999 12.4447 65.2582 12.4447 64.5897V62.7786C12.4405 62.1058 11.8989 61.5684 11.2303 61.5684H9.4192C8.75062 61.5684 8.20898 62.11 8.20898 62.7786Z" fill="#868695"/>
<path d="M24.7549 61.5684H20.5234V65.7999H24.7549V61.5684Z" fill="#868695"/>
<path d="M45.2764 61.5684H41.0449V65.7999H45.2764V61.5684Z" fill="#868695"/>
<path d="M49.3819 61.5684H45.1504V65.7999H49.3819V61.5684Z" fill="#868695"/>
<path d="M53.4854 61.5684H49.2539V65.7999H53.4854V61.5684Z" fill="#868695"/>
<path d="M57.5909 61.5684H53.3594V65.7999H57.5909V61.5684Z" fill="#868695"/>
<path d="M98.5098 62.7786V64.5939C98.5098 65.2625 99.0514 65.7999 99.72 65.7999H101.535C102.208 65.7999 102.746 65.2582 102.746 64.5897V62.7786C102.741 62.1058 102.2 61.5684 101.531 61.5684H99.72C99.0514 61.5684 98.5098 62.11 98.5098 62.7786Z" fill="#868695"/>
<path d="M115.054 61.5684H110.822V65.7999H115.054V61.5684Z" fill="#868695"/>
<path d="M119.159 61.5684H114.928V65.7999H119.159V61.5684Z" fill="#868695"/>
<path d="M119.033 65.7998V61.5683H121.826C122.621 61.5683 123.265 62.2124 123.265 63.007V65.7998H119.033Z" fill="#868695"/>
<path d="M127.242 62.7786V64.5939C127.242 65.2625 127.784 65.7999 128.452 65.7999H130.268C130.941 65.7999 131.478 65.2582 131.478 64.5897V62.7786C131.474 62.1058 130.932 61.5684 130.263 61.5684H128.452C127.784 61.5684 127.242 62.11 127.242 62.7786Z" fill="#868695"/>
<path d="M142.496 65.7157V65.8004H143.787V64.5098H143.702C143.702 65.1783 143.16 65.7157 142.496 65.7157Z" fill="#868695"/>
<path d="M147.892 61.5684H143.66V65.7999H147.892V61.5684Z" fill="#868695"/>
<path d="M147.764 61.5684H151.995V64.3612C151.995 65.1557 151.351 65.7999 150.556 65.7999H147.764V61.5684Z" fill="#868695"/>
<path d="M24.7559 65.6729V69.9044H21.9631C21.1685 69.9044 20.5244 69.2602 20.5244 68.4656V65.6729H24.7559Z" fill="#868695"/>
<path d="M28.8585 65.6729H24.627V69.9044H28.8585V65.6729Z" fill="#868695"/>
<path d="M28.7324 69.9043V65.6728H31.5252C32.3198 65.6728 32.9639 66.3169 32.9639 67.1115V69.9043H28.7324Z" fill="#868695"/>
<path d="M45.2764 65.6729H41.0449V69.9044H45.2764V65.6729Z" fill="#868695"/>
<path d="M57.5918 65.6729V68.4656C57.5918 69.2602 56.9477 69.9044 56.1531 69.9044H54.799C54.0044 69.9044 53.3603 69.2602 53.3603 68.4656V65.6729H57.5918Z" fill="#868695"/>
<path d="M102.613 66.8831V68.6984C102.613 69.367 103.155 69.9044 103.823 69.9044H105.639C106.312 69.9044 106.849 69.3627 106.849 68.6941V66.8831C106.845 66.2103 106.303 65.6729 105.635 65.6729H103.823C103.155 65.6729 102.613 66.2145 102.613 66.8831Z" fill="#868695"/>
<path d="M115.055 65.6729V68.4656C115.055 69.2602 114.411 69.9044 113.616 69.9044H112.262C111.467 69.9044 110.823 69.2602 110.823 68.4656V65.6729H115.055Z" fill="#868695"/>
<path d="M123.266 65.6729V69.9044H120.473C119.678 69.9044 119.034 69.2602 119.034 68.4656V65.6729H123.266Z" fill="#868695"/>
<path d="M123.137 69.9043V65.6728H125.93C126.724 65.6728 127.368 66.3169 127.368 67.1115V69.9043H123.137Z" fill="#868695"/>
<path d="M131.346 66.8831V68.6984C131.346 69.367 131.887 69.9044 132.556 69.9044H134.371C135.044 69.9044 135.581 69.3627 135.581 68.6941V66.8831C135.577 66.2103 135.036 65.6729 134.367 65.6729H132.556C131.887 65.6729 131.346 66.2145 131.346 66.8831Z" fill="#868695"/>
<path d="M143.787 69.9043H140.994C140.2 69.9043 139.556 69.2602 139.556 68.4656V67.1115C139.556 66.3169 140.2 65.6728 140.994 65.6728H143.787V69.9043Z" fill="#868695"/>
<path d="M143.66 65.6729H147.892V68.4656C147.892 69.2602 147.248 69.9044 146.453 69.9044H143.66V65.6729Z" fill="#868695"/>
<path d="M8.20898 74.0088V71.216C8.20898 70.4214 8.85312 69.7773 9.6477 69.7773H11.0018C11.7964 69.7773 12.4405 70.4214 12.4405 71.216V74.0088H8.20898Z" fill="#868695"/>
<path d="M32.9639 69.7773H28.7324V74.0089H32.9639V69.7773Z" fill="#868695"/>
<path d="M45.2773 69.7773V72.5701C45.2773 73.3647 44.6332 74.0089 43.8386 74.0089H42.4845C41.69 74.0089 41.0458 73.3647 41.0458 72.5701V69.7773H45.2773Z" fill="#868695"/>
<path d="M48.0918 73.9247V74.0094H49.3824V72.7188H49.2978C49.2978 73.3873 48.7561 73.9247 48.0918 73.9247Z" fill="#868695"/>
<path d="M49.2539 74.0088V71.216C49.2539 70.4214 49.898 69.7773 50.6926 69.7773H52.0467C52.8413 69.7773 53.4854 70.4214 53.4854 71.216V74.0088H49.2539Z" fill="#868695"/>
<path d="M94.4043 70.9876V72.8029C94.4043 73.4715 94.9459 74.0089 95.6145 74.0089H97.4298C98.1026 74.0089 98.64 73.4672 98.64 72.7986V70.9876C98.6358 70.3147 98.0942 69.7773 97.4256 69.7773H95.6145C94.9459 69.7773 94.4043 70.319 94.4043 70.9876Z" fill="#868695"/>
<path d="M105.555 73.9247V74.0094H106.845V72.7188H106.761C106.761 73.3873 106.219 73.9247 105.555 73.9247Z" fill="#868695"/>
<path d="M106.719 74.0088V71.216C106.719 70.4214 107.363 69.7773 108.157 69.7773H109.512C110.306 69.7773 110.95 70.4214 110.95 71.216V74.0088H106.719Z" fill="#868695"/>
<path d="M127.242 74.0088V71.216C127.242 70.4214 127.886 69.7773 128.681 69.7773H130.035C130.83 69.7773 131.474 70.4214 131.474 71.216V74.0088H127.242Z" fill="#868695"/>
<path d="M134.287 73.9247V74.0094H135.578V72.7188H135.493C135.493 73.3873 134.951 73.9247 134.287 73.9247Z" fill="#868695"/>
<path d="M135.451 74.0088V71.216C135.451 70.4214 136.095 69.7773 136.89 69.7773H138.244C139.039 69.7773 139.683 70.4214 139.683 71.216V74.0088H135.451Z" fill="#868695"/>
<path d="M12.4414 73.8818V76.6746C12.4414 77.4692 11.7973 78.1133 11.0027 78.1133H9.64861C8.85403 78.1133 8.2099 77.4692 8.2099 76.6746V73.8818H12.4414Z" fill="#868695"/>
<path d="M28.8594 78.1133H26.0666C25.272 78.1133 24.6279 77.4691 24.6279 76.6746V75.3205C24.6279 74.5259 25.272 73.8818 26.0666 73.8818H28.8594V78.1133Z" fill="#868695"/>
<path d="M28.7324 73.8818H32.9639V76.6746C32.9639 77.4692 32.3198 78.1133 31.5252 78.1133H28.7324V73.8818Z" fill="#868695"/>
<path d="M36.9414 75.092V76.9074C36.9414 77.5759 37.483 78.1133 38.1516 78.1133H39.9669C40.6397 78.1133 41.1771 77.5717 41.1771 76.9031V75.092C41.1729 74.4192 40.6313 73.8818 39.9627 73.8818H38.1516C37.483 73.8818 36.9414 74.4235 36.9414 75.092Z" fill="#868695"/>
<path d="M49.3828 78.1133H45.1513V75.3205C45.1513 74.5259 45.7954 73.8818 46.59 73.8818H49.3828V78.1133Z" fill="#868695"/>
<path d="M49.2539 73.8818H53.4854V76.6746C53.4854 77.4692 52.8413 78.1133 52.0467 78.1133H49.2539V73.8818Z" fill="#868695"/>
<path d="M102.742 78.1133H98.5107V75.3205C98.5107 74.5259 99.1548 73.8818 99.9494 73.8818H102.742V78.1133Z" fill="#868695"/>
<path d="M106.845 73.8818H102.613V78.1133H106.845V73.8818Z" fill="#868695"/>
<path d="M110.95 73.8818H106.719V78.1133H110.95V73.8818Z" fill="#868695"/>
<path d="M110.822 78.1133V73.8818H113.615C114.41 73.8818 115.054 74.5259 115.054 75.3205V78.1133H110.822Z" fill="#868695"/>
<path d="M119.033 75.092V76.9074C119.033 77.5759 119.575 78.1133 120.243 78.1133H122.059C122.732 78.1133 123.269 77.5717 123.269 76.9031V75.092C123.265 74.4192 122.723 73.8818 122.054 73.8818H120.243C119.575 73.8818 119.033 74.4235 119.033 75.092Z" fill="#868695"/>
<path d="M131.475 73.8818V78.1133H128.682C127.887 78.1133 127.243 77.4692 127.243 76.6746V73.8818H131.475Z" fill="#868695"/>
<path d="M135.577 73.8818H131.346V78.1133H135.577V73.8818Z" fill="#868695"/>
<path d="M139.683 73.8818H135.451V78.1133H139.683V73.8818Z" fill="#868695"/>
<path d="M143.786 73.8818H139.555V78.1133H143.786V73.8818Z" fill="#868695"/>
<path d="M147.892 73.8818H143.66V78.1133H147.892V73.8818Z" fill="#868695"/>
<path d="M147.764 78.1133V73.8818H150.556C151.351 73.8818 151.995 74.5259 151.995 75.3205V78.1133H147.764Z" fill="#868695"/>
<path d="M4.10547 79.1965V81.0119C4.10547 81.6804 4.6471 82.2178 5.31568 82.2178H7.131C7.80381 82.2178 8.34121 81.6762 8.34121 81.0076V79.1965C8.33698 78.5237 7.79534 77.9863 7.12677 77.9863H5.31568C4.6471 77.9863 4.10547 78.528 4.10547 79.1965Z" fill="#868695"/>
<path d="M20.5234 79.1965V81.0119C20.5234 81.6804 21.0651 82.2178 21.7336 82.2178H23.549C24.2218 82.2178 24.7592 81.6762 24.7592 81.0076V79.1965C24.7549 78.5237 24.2133 77.9863 23.5447 77.9863H21.7336C21.0651 77.9863 20.5234 78.528 20.5234 79.1965Z" fill="#868695"/>
<path d="M49.3828 77.9863V80.7791C49.3828 81.5737 48.7387 82.2178 47.9441 82.2178H46.59C45.7954 82.2178 45.1513 81.5737 45.1513 80.7791V77.9863H49.3828Z" fill="#868695"/>
<path d="M53.3594 82.2178V79.425C53.3594 78.6304 54.0035 77.9863 54.7981 77.9863H56.1522C56.9467 77.9863 57.5909 78.6304 57.5909 79.425V82.2178H53.3594Z" fill="#868695"/>
<path d="M102.742 77.9863V80.7791C102.742 81.5737 102.098 82.2178 101.303 82.2178H99.9494C99.1548 82.2178 98.5107 81.5737 98.5107 80.7791V77.9863H102.742Z" fill="#868695"/>
<path d="M115.054 77.9863H110.822V82.2178H115.054V77.9863Z" fill="#868695"/>
<path d="M114.928 82.2178V77.9863H117.721C118.515 77.9863 119.159 78.6304 119.159 79.425V82.2178H114.928Z" fill="#868695"/>
<path d="M147.893 77.9863V80.7791C147.893 81.5737 147.248 82.2178 146.454 82.2178H145.1C144.305 82.2178 143.661 81.5737 143.661 80.7791V77.9863H147.893Z" fill="#868695"/>
<path d="M8.20898 86.3232V83.5304C8.20898 82.7359 8.85312 82.0917 9.6477 82.0917H11.0018C11.7964 82.0917 12.4405 82.7359 12.4405 83.5304V86.3232H8.20898Z" fill="#868695"/>
<path d="M24.627 83.302V85.1173C24.627 85.7859 25.1686 86.3233 25.8372 86.3233H27.6525C28.3253 86.3233 28.8627 85.7817 28.8627 85.1131V83.302C28.8585 82.6292 28.3168 82.0918 27.6482 82.0918H25.8372C25.1686 82.0918 24.627 82.6334 24.627 83.302Z" fill="#868695"/>
<path d="M36.9414 83.302V85.1173C36.9414 85.7859 37.483 86.3233 38.1516 86.3233H39.9669C40.6397 86.3233 41.1771 85.7817 41.1771 85.1131V83.302C41.1729 82.6292 40.6313 82.0918 39.9627 82.0918H38.1516C37.483 82.0918 36.9414 82.6334 36.9414 83.302Z" fill="#868695"/>
<path d="M57.5918 82.0918V84.8846C57.5918 85.6792 56.9477 86.3233 56.1531 86.3233H54.799C54.0044 86.3233 53.3603 85.6792 53.3603 84.8846V82.0918H57.5918Z" fill="#868695"/>
<path d="M94.4043 86.3232V83.5304C94.4043 82.7359 95.0484 82.0917 95.843 82.0917H97.1971C97.9917 82.0917 98.6358 82.7359 98.6358 83.5304V86.3232H94.4043Z" fill="#868695"/>
<path d="M106.846 86.3232H104.053C103.258 86.3232 102.614 85.6791 102.614 84.8845V83.5304C102.614 82.7359 103.258 82.0917 104.053 82.0917H106.846V86.3232Z" fill="#868695"/>
<path d="M110.95 82.0918H106.719V86.3233H110.95V82.0918Z" fill="#868695"/>
<path d="M110.822 82.0918H115.054V84.8846C115.054 85.6792 114.41 86.3233 113.615 86.3233H110.822V82.0918Z" fill="#868695"/>
<path d="M123.266 86.3232H119.034V83.5304C119.034 82.7359 119.678 82.0917 120.473 82.0917H123.266V86.3232Z" fill="#868695"/>
<path d="M127.368 82.0918H123.137V86.3233H127.368V82.0918Z" fill="#868695"/>
<path d="M131.474 82.0918H127.242V86.3233H131.474V82.0918Z" fill="#868695"/>
<path d="M135.577 82.0918H131.346V86.3233H135.577V82.0918Z" fill="#868695"/>
<path d="M139.683 82.0918H135.451V86.3233H139.683V82.0918Z" fill="#868695"/>
<path d="M139.555 86.3232V82.0917H142.347C143.142 82.0917 143.786 82.7359 143.786 83.5304V86.3232H139.555Z" fill="#868695"/>
<path d="M0 87.4055V89.2208C0 89.8894 0.541633 90.4268 1.21021 90.4268H3.02553C3.69834 90.4268 4.23574 89.8852 4.23574 89.2166V87.4055C4.23151 86.7327 3.68987 86.1953 3.0213 86.1953H1.21021C0.541633 86.1953 0 86.7369 0 87.4055Z" fill="#868695"/>
<path d="M7.04492 90.3427V90.4273H8.33553V89.1367H8.2509C8.2509 89.8053 7.70927 90.3427 7.04492 90.3427Z" fill="#868695"/>
<path d="M12.4405 86.1953H8.20898V90.4268H12.4405V86.1953Z" fill="#868695"/>
<path d="M16.418 87.4055V89.2208C16.418 89.8894 16.9596 90.4268 17.6282 90.4268H19.4435C20.1163 90.4268 20.6537 89.8852 20.6537 89.2166V87.4055C20.6495 86.7327 20.1078 86.1953 19.4393 86.1953H17.6282C16.9596 86.1953 16.418 86.7369 16.418 87.4055Z" fill="#868695"/>
<path d="M32.9648 90.4268H30.172C29.3775 90.4268 28.7333 89.7826 28.7333 88.988V87.634C28.7333 86.8394 29.3775 86.1953 30.172 86.1953H32.9648V90.4268Z" fill="#868695"/>
<path d="M32.8359 90.4268V86.1953H35.6287C36.4233 86.1953 37.0674 86.8394 37.0674 87.634V90.4268H32.8359Z" fill="#868695"/>
<path d="M43.9863 90.3427V90.4273H45.2769V89.1367H45.1923C45.1923 89.8053 44.6507 90.3427 43.9863 90.3427Z" fill="#868695"/>
<path d="M49.3828 90.4268H45.1513V87.634C45.1513 86.8394 45.7954 86.1953 46.59 86.1953H49.3828V90.4268Z" fill="#868695"/>
<path d="M49.2539 90.4268V86.1953H52.0467C52.8413 86.1953 53.4854 86.8394 53.4854 87.634V90.4268H49.2539Z" fill="#868695"/>
<path d="M98.6367 86.1953V90.4268H95.8439C95.0493 90.4268 94.4052 89.7827 94.4052 88.9881V86.1953H98.6367Z" fill="#868695"/>
<path d="M98.5098 90.4268V86.1953H101.303C102.097 86.1953 102.741 86.8394 102.741 87.634V90.4268H98.5098Z" fill="#868695"/>
<path d="M123.265 86.1953H119.033V90.4268H123.265V86.1953Z" fill="#868695"/>
<path d="M131.475 86.1953V88.9881C131.475 89.7827 130.83 90.4268 130.036 90.4268H128.682C127.887 90.4268 127.243 89.7827 127.243 88.9881V86.1953H131.475Z" fill="#868695"/>
<path d="M139.684 86.1953V90.4268H136.891C136.096 90.4268 135.452 89.7827 135.452 88.9881V86.1953H139.684Z" fill="#868695"/>
<path d="M143.786 86.1953H139.555V90.4268H143.786V86.1953Z" fill="#868695"/>
<path d="M2.94141 94.4472V94.5318H4.23202V93.2412H4.14739C4.14739 93.9098 3.60575 94.4472 2.94141 94.4472Z" fill="#868695"/>
<path d="M8.33789 94.5312H4.10638V91.7385C4.10638 90.9439 4.75052 90.2997 5.5451 90.2997H8.33789V94.5312Z" fill="#868695"/>
<path d="M12.4405 90.3008H8.20898V94.5323H12.4405V90.3008Z" fill="#868695"/>
<path d="M12.3145 94.5312V90.2997H15.1072C15.9018 90.2997 16.546 90.9439 16.546 91.7385V94.5312H12.3145Z" fill="#868695"/>
<path d="M24.7559 94.5312H21.9631C21.1685 94.5312 20.5244 93.8871 20.5244 93.0925V91.7385C20.5244 90.9439 21.1685 90.2997 21.9631 90.2997H24.7559V94.5312Z" fill="#868695"/>
<path d="M24.627 94.5312V90.2997H27.4197C28.2143 90.2997 28.8585 90.9439 28.8585 91.7385V94.5312H24.627Z" fill="#868695"/>
<path d="M37.0674 90.3008H32.8359V94.5323H37.0674V90.3008Z" fill="#868695"/>
<path d="M45.2773 94.5312H42.4845C41.69 94.5312 41.0458 93.8871 41.0458 93.0925V91.7385C41.0458 90.9439 41.69 90.2997 42.4845 90.2997H45.2773V94.5312Z" fill="#868695"/>
<path d="M49.3819 90.3008H45.1504V94.5323H49.3819V90.3008Z" fill="#868695"/>
<path d="M49.2539 90.3008H53.4854V93.0936C53.4854 93.8882 52.8413 94.5323 52.0467 94.5323H49.2539V90.3008Z" fill="#868695"/>
<path d="M102.742 90.3008V93.0936C102.742 93.8882 102.098 94.5323 101.303 94.5323H99.9494C99.1548 94.5323 98.5107 93.8882 98.5107 93.0936V90.3008H102.742Z" fill="#868695"/>
<path d="M110.822 91.511V93.3263C110.822 93.9949 111.364 94.5323 112.032 94.5323H113.848C114.521 94.5323 115.058 93.9907 115.058 93.3221V91.511C115.054 90.8382 114.512 90.3008 113.844 90.3008H112.032C111.364 90.3008 110.822 90.8424 110.822 91.511Z" fill="#868695"/>
<path d="M123.265 90.3008H119.033V94.5323H123.265V90.3008Z" fill="#868695"/>
<path d="M123.137 94.5312V90.2997H125.93C126.724 90.2997 127.368 90.9439 127.368 91.7385V94.5312H123.137Z" fill="#868695"/>
<path d="M143.787 90.3008V94.5323H140.994C140.2 94.5323 139.556 93.8882 139.556 93.0936V90.3008H143.787Z" fill="#868695"/>
<path d="M147.892 90.3008H143.66V94.5323H147.892V90.3008Z" fill="#868695"/>
<path d="M147.764 94.5312V90.2997H150.556C151.351 90.2997 151.995 90.9439 151.995 91.7385V94.5312H147.764Z" fill="#868695"/>
<path d="M4.23242 98.6367H0.000914574V95.8439C0.000914574 95.0493 0.645048 94.4052 1.43963 94.4052H4.23242L4.23242 98.6367Z" fill="#868695"/>
<path d="M4.10547 94.4053H8.33698V97.1981C8.33698 97.9926 7.69284 98.6368 6.89826 98.6368H4.10547V94.4053Z" fill="#868695"/>
<path d="M16.418 95.6155V97.4308C16.418 98.0994 16.9596 98.6368 17.6282 98.6368H19.4435C20.1163 98.6368 20.6537 98.0951 20.6537 97.4266V95.6155C20.6495 94.9427 20.1078 94.4053 19.4393 94.4053H17.6282C16.9596 94.4053 16.418 94.9469 16.418 95.6155Z" fill="#868695"/>
<path d="M27.5684 98.5517V98.6363H28.859V97.3457H28.7743C28.7743 98.0143 28.2327 98.5517 27.5684 98.5517Z" fill="#868695"/>
<path d="M32.9648 98.6367H28.7333V95.8439C28.7333 95.0493 29.3775 94.4052 30.172 94.4052H32.9648V98.6367Z" fill="#868695"/>
<path d="M37.0674 94.4053H32.8359V98.6368H37.0674V94.4053Z" fill="#868695"/>
<path d="M36.9414 98.6367V94.4052H39.7342C40.5288 94.4052 41.1729 95.0493 41.1729 95.8439V98.6367H36.9414Z" fill="#868695"/>
<path d="M49.3819 94.4053H45.1504V98.6368H49.3819V94.4053Z" fill="#868695"/>
<path d="M53.3594 98.6367V95.8439C53.3594 95.0493 54.0035 94.4052 54.7981 94.4052H56.1522C56.9467 94.4052 57.5909 95.0493 57.5909 95.8439V98.6367H53.3594Z" fill="#868695"/>
<path d="M72.7188 98.5517V98.6363H74.0094V97.3457H73.9247C73.9247 98.0143 73.3831 98.5517 72.7188 98.5517Z" fill="#868695"/>
<path d="M73.8828 98.6367V95.8439C73.8828 95.0493 74.5269 94.4052 75.3215 94.4052H76.6756C77.4702 94.4052 78.1143 95.0493 78.1143 95.8439V98.6367H73.8828Z" fill="#868695"/>
<path d="M86.3242 98.6367H82.0927V95.8439C82.0927 95.0493 82.7368 94.4052 83.5314 94.4052H86.3242V98.6367Z" fill="#868695"/>
<path d="M86.1953 98.6367V94.4052H88.9881C89.7827 94.4052 90.4268 95.0493 90.4268 95.8439V98.6367H86.1953Z" fill="#868695"/>
<path d="M123.266 94.4053V98.6368H120.473C119.678 98.6368 119.034 97.9926 119.034 97.1981V94.4053H123.266Z" fill="#868695"/>
<path d="M127.368 94.4053H123.137V98.6368H127.368V94.4053Z" fill="#868695"/>
<path d="M127.242 98.6367V94.4052H130.035C130.83 94.4052 131.474 95.0493 131.474 95.8439V98.6367H127.242Z" fill="#868695"/>
<path d="M147.892 94.4053H143.66V98.6368H147.892V94.4053Z" fill="#868695"/>
<path d="M147.764 94.4053H151.995V97.1981C151.995 97.9926 151.351 98.6368 150.556 98.6368H147.764V94.4053Z" fill="#868695"/>
<path d="M4.23151 98.5088H0V102.74H4.23151V98.5088Z" fill="#868695"/>
<path d="M12.4414 102.74H9.64861C8.85403 102.74 8.2099 102.096 8.2099 101.302V99.9474C8.2099 99.1529 8.85403 98.5087 9.64861 98.5087H12.4414V102.74Z" fill="#868695"/>
<path d="M12.3145 102.74V98.5087H15.1072C15.9018 98.5087 16.546 99.1529 16.546 99.9474V102.74H12.3145Z" fill="#868695"/>
<path d="M28.8594 102.74H26.0666C25.272 102.74 24.6279 102.096 24.6279 101.302V99.9474C24.6279 99.1529 25.272 98.5087 26.0666 98.5087H28.8594V102.74Z" fill="#868695"/>
<path d="M32.9639 98.5088H28.7324V102.74H32.9639V98.5088Z" fill="#868695"/>
<path d="M49.3828 98.5088V101.302C49.3828 102.096 48.7387 102.74 47.9441 102.74H46.59C45.7954 102.74 45.1513 102.096 45.1513 101.302V98.5088H49.3828Z" fill="#868695"/>
<path d="M57.5918 98.5088V101.302C57.5918 102.096 56.9477 102.74 56.1531 102.74H54.799C54.0044 102.74 53.3603 102.096 53.3603 101.302V98.5088H57.5918Z" fill="#868695"/>
<path d="M61.5684 99.719V101.534C61.5684 102.203 62.11 102.74 62.7786 102.74H64.5939C65.2667 102.74 65.8041 102.199 65.8041 101.53V99.719C65.7999 99.0462 65.2582 98.5088 64.5897 98.5088H62.7786C62.11 98.5088 61.5684 99.0504 61.5684 99.719Z" fill="#868695"/>
<path d="M74.0098 102.74H71.217C70.4224 102.74 69.7783 102.096 69.7783 101.302V99.9474C69.7783 99.1529 70.4224 98.5087 71.217 98.5087H74.0098V102.74Z" fill="#868695"/>
<path d="M78.1143 98.5088H73.8828V102.74H78.1143V98.5088Z" fill="#868695"/>
<path d="M86.3242 98.5088V101.302C86.3242 102.096 85.6801 102.74 84.8855 102.74H83.5314C82.7368 102.74 82.0927 102.096 82.0927 101.302V98.5088H86.3242Z" fill="#868695"/>
<path d="M94.5332 102.74H91.7404C90.9458 102.74 90.3017 102.096 90.3017 101.302V99.9474C90.3017 99.1529 90.9458 98.5087 91.7404 98.5087H94.5332V102.74Z" fill="#868695"/>
<path d="M94.4043 102.74V98.5087H97.1971C97.9917 98.5087 98.6358 99.1529 98.6358 99.9474V102.74H94.4043Z" fill="#868695"/>
<path d="M102.613 99.719V101.534C102.613 102.203 103.155 102.74 103.823 102.74H105.639C106.312 102.74 106.849 102.199 106.849 101.53V99.719C106.845 99.0462 106.303 98.5088 105.635 98.5088H103.823C103.155 98.5088 102.613 99.0504 102.613 99.719Z" fill="#868695"/>
<path d="M127.369 98.5088V101.302C127.369 102.096 126.725 102.74 125.93 102.74H124.576C123.782 102.74 123.138 102.096 123.138 101.302V98.5088H127.369Z" fill="#868695"/>
<path d="M135.578 102.74H132.785C131.991 102.74 131.347 102.096 131.347 101.302V99.9474C131.347 99.1529 131.991 98.5087 132.785 98.5087H135.578V102.74Z" fill="#868695"/>
<path d="M139.683 98.5088H135.451V102.74H139.683V98.5088Z" fill="#868695"/>
<path d="M143.786 98.5088H139.555V102.74H143.786V98.5088Z" fill="#868695"/>
<path d="M147.892 98.5088H143.66V102.74H147.892V98.5088Z" fill="#868695"/>
<path d="M4.23151 102.614H0V106.846H4.23151V102.614Z" fill="#868695"/>
<path d="M16.418 106.845V104.052C16.418 103.257 17.0621 102.613 17.8567 102.613H19.2108C20.0053 102.613 20.6495 103.257 20.6495 104.052V106.845H16.418Z" fill="#868695"/>
<path d="M32.9648 102.614V106.846H30.172C29.3775 106.846 28.7333 106.202 28.7333 105.407V102.614H32.9648Z" fill="#868695"/>
<path d="M37.0674 102.614H32.8359V106.846H37.0674V102.614Z" fill="#868695"/>
<path d="M36.9414 106.845V102.613H39.7342C40.5288 102.613 41.1729 103.257 41.1729 104.052V106.845H36.9414Z" fill="#868695"/>
<path d="M57.4629 106.845V104.052C57.4629 103.257 58.107 102.613 58.9016 102.613H60.2557C61.0503 102.613 61.6944 103.257 61.6944 104.052V106.845H57.4629Z" fill="#868695"/>
<path d="M78.1143 102.614H73.8828V106.846H78.1143V102.614Z" fill="#868695"/>
<path d="M77.9863 106.845V102.613H80.7791C81.5737 102.613 82.2178 103.257 82.2178 104.052V106.845H77.9863Z" fill="#868695"/>
<path d="M98.6367 102.614V105.407C98.6367 106.202 97.9926 106.846 97.198 106.846H95.8439C95.0493 106.846 94.4052 106.202 94.4052 105.407V102.614H98.6367Z" fill="#868695"/>
<path d="M113.764 106.761V106.845H115.054V105.555H114.97C114.97 106.223 114.428 106.761 113.764 106.761Z" fill="#868695"/>
<path d="M114.928 106.845V104.052C114.928 103.257 115.572 102.613 116.366 102.613H117.721C118.515 102.613 119.159 103.257 119.159 104.052V106.845H114.928Z" fill="#868695"/>
<path d="M126.078 106.761V106.845H127.369V105.555H127.284C127.284 106.223 126.742 106.761 126.078 106.761Z" fill="#868695"/>
<path d="M127.242 106.845V104.052C127.242 103.257 127.886 102.613 128.681 102.613H130.035C130.83 102.613 131.474 103.257 131.474 104.052V106.845H127.242Z" fill="#868695"/>
<path d="M139.683 102.614H135.451V106.846H139.683V102.614Z" fill="#868695"/>
<path d="M147.892 102.614H143.66V106.846H147.892V102.614Z" fill="#868695"/>
<path d="M4.23151 106.719H0V110.95H4.23151V106.719Z" fill="#868695"/>
<path d="M20.6504 106.719V109.512C20.6504 110.306 20.0063 110.95 19.2117 110.95H17.8576C17.063 110.95 16.4189 110.306 16.4189 109.512V106.719H20.6504Z" fill="#868695"/>
<path d="M24.627 107.929V109.744C24.627 110.413 25.1686 110.95 25.8372 110.95H27.6525C28.3253 110.95 28.8627 110.409 28.8627 109.74V107.929C28.8585 107.256 28.3168 106.719 27.6482 106.719H25.8372C25.1686 106.719 24.627 107.26 24.627 107.929Z" fill="#868695"/>
<path d="M37.0674 106.719H32.8359V110.95H37.0674V106.719Z" fill="#868695"/>
<path d="M39.8828 110.865V110.95H41.1734V109.659H41.0888C41.0888 110.328 40.5472 110.865 39.8828 110.865Z" fill="#868695"/>
<path d="M41.0449 110.95V108.157C41.0449 107.363 41.6891 106.719 42.4836 106.719H43.8377C44.6323 106.719 45.2764 107.363 45.2764 108.157V110.95H41.0449Z" fill="#868695"/>
<path d="M61.6953 106.719V109.512C61.6953 110.306 61.0512 110.95 60.2566 110.95H58.9025C58.1079 110.95 57.4638 110.306 57.4638 109.512V106.719H61.6953Z" fill="#868695"/>
<path d="M65.6738 110.95V108.157C65.6738 107.363 66.318 106.719 67.1125 106.719H68.4666C69.2612 106.719 69.9053 107.363 69.9053 108.157V110.95H65.6738Z" fill="#868695"/>
<path d="M78.1143 106.719H73.8828V110.95H78.1143V106.719Z" fill="#868695"/>
<path d="M82.2178 106.719H77.9863V110.95H82.2178V106.719Z" fill="#868695"/>
<path d="M86.3233 106.719H82.0918V110.95H86.3233V106.719Z" fill="#868695"/>
<path d="M86.1953 110.95V106.719H88.9881C89.7827 106.719 90.4268 107.363 90.4268 108.157V110.95H86.1953Z" fill="#868695"/>
<path d="M102.742 110.95H99.9494C99.1548 110.95 98.5107 110.306 98.5107 109.511V108.157C98.5107 107.363 99.1548 106.719 99.9494 106.719H102.742V110.95Z" fill="#868695"/>
<path d="M102.613 110.95V106.719H105.406C106.201 106.719 106.845 107.363 106.845 108.157V110.95H102.613Z" fill="#868695"/>
<path d="M109.66 110.865V110.95H110.951V109.659H110.866C110.866 110.328 110.325 110.865 109.66 110.865Z" fill="#868695"/>
<path d="M115.055 110.95H110.823V108.157C110.823 107.363 111.467 106.719 112.262 106.719H115.055V110.95Z" fill="#868695"/>
<path d="M119.159 106.719H114.928V110.95H119.159V106.719Z" fill="#868695"/>
<path d="M127.369 110.95H124.576C123.782 110.95 123.138 110.306 123.138 109.511V108.157C123.138 107.363 123.782 106.719 124.576 106.719H127.369V110.95Z" fill="#868695"/>
<path d="M127.242 106.719H131.474V109.512C131.474 110.306 130.83 110.95 130.035 110.95H127.242V106.719Z" fill="#868695"/>
<path d="M139.684 106.719V110.95H136.891C136.096 110.95 135.452 110.306 135.452 109.512V106.719H139.684Z" fill="#868695"/>
<path d="M143.786 106.719H139.555V110.95H143.786V106.719Z" fill="#868695"/>
<path d="M147.892 106.719H143.66V110.95H147.892V106.719Z" fill="#868695"/>
<path d="M147.764 110.95V106.719H150.556C151.351 106.719 151.995 107.363 151.995 108.157V110.95H147.764Z" fill="#868695"/>
<path d="M4.23151 110.823H0V115.055H4.23151V110.823Z" fill="#868695"/>
<path d="M12.4414 115.055H8.2099V112.262C8.2099 111.467 8.85403 110.823 9.64861 110.823H12.4414V115.055Z" fill="#868695"/>
<path d="M12.3145 115.055V110.823H15.1072C15.9018 110.823 16.546 111.467 16.546 112.262V115.055H12.3145Z" fill="#868695"/>
<path d="M19.3594 114.97V115.054H20.65V113.764H20.5654C20.5654 114.432 20.0237 114.97 19.3594 114.97Z" fill="#868695"/>
<path d="M20.5234 115.055V112.262C20.5234 111.467 21.1676 110.823 21.9621 110.823H23.3162C24.1108 110.823 24.7549 111.467 24.7549 112.262V115.055H20.5234Z" fill="#868695"/>
<path d="M37.0684 110.823V115.055H34.2756C33.481 115.055 32.8369 114.411 32.8369 113.616V110.823H37.0684Z" fill="#868695"/>
<path d="M41.1729 110.823H36.9414V115.055H41.1729V110.823Z" fill="#868695"/>
<path d="M45.2764 110.823H41.0449V115.055H45.2764V110.823Z" fill="#868695"/>
<path d="M45.1504 115.055V110.823H47.9432C48.7378 110.823 49.3819 111.467 49.3819 112.262V115.055H45.1504Z" fill="#868695"/>
<path d="M69.9062 110.823V113.616C69.9062 114.411 69.2621 115.055 68.4675 115.055H67.1135C66.3189 115.055 65.6747 114.411 65.6747 113.616V110.823H69.9062Z" fill="#868695"/>
<path d="M78.1152 110.823V113.616C78.1152 114.411 77.4711 115.055 76.6765 115.055H75.3224C74.5279 115.055 73.8837 114.411 73.8837 113.616V110.823H78.1152Z" fill="#868695"/>
<path d="M90.4277 110.823V113.616C90.4277 114.411 89.7836 115.055 88.989 115.055H87.6349C86.8404 115.055 86.1962 114.411 86.1962 113.616V110.823H90.4277Z" fill="#868695"/>
<path d="M94.4043 115.055V112.262C94.4043 111.467 95.0484 110.823 95.843 110.823H97.1971C97.9917 110.823 98.6358 111.467 98.6358 112.262V115.055H94.4043Z" fill="#868695"/>
<path d="M105.555 114.97V115.054H106.845V113.764H106.761C106.761 114.432 106.219 114.97 105.555 114.97Z" fill="#868695"/>
<path d="M110.951 115.055H106.72V112.262C106.72 111.467 107.364 110.823 108.158 110.823H110.951V115.055Z" fill="#868695"/>
<path d="M115.054 110.823H110.822V115.055H115.054V110.823Z" fill="#868695"/>
<path d="M119.159 110.823H114.928V115.055H119.159V110.823Z" fill="#868695"/>
<path d="M119.033 115.055V110.823H121.826C122.621 110.823 123.265 111.467 123.265 112.262V115.055H119.033Z" fill="#868695"/>
<path d="M130.182 114.97V115.054H131.472V113.764H131.388C131.388 114.432 130.846 114.97 130.182 114.97Z" fill="#868695"/>
<path d="M131.346 115.055V112.262C131.346 111.467 131.99 110.823 132.784 110.823H134.138C134.933 110.823 135.577 111.467 135.577 112.262V115.055H131.346Z" fill="#868695"/>
<path d="M147.893 110.823V115.055H145.1C144.305 115.055 143.661 114.411 143.661 113.616V110.823H147.893Z" fill="#868695"/>
<path d="M151.995 110.823H147.764V115.055H151.995V110.823Z" fill="#868695"/>
<path d="M4.23242 114.928V117.721C4.23242 118.515 3.58829 119.159 2.79371 119.159H1.43963C0.645048 119.159 0.000914574 118.515 0.000914574 117.721V114.928H4.23242Z" fill="#868695"/>
<path d="M12.4414 114.928V117.721C12.4414 118.515 11.7973 119.159 11.0027 119.159H9.64861C8.85403 119.159 8.2099 118.515 8.2099 117.721V114.928H12.4414Z" fill="#868695"/>
<path d="M20.6504 119.159H17.8576C17.063 119.159 16.4189 118.515 16.4189 117.72V116.366C16.4189 115.572 17.063 114.928 17.8576 114.928H20.6504V119.159Z" fill="#868695"/>
<path d="M24.7549 114.928H20.5234V119.159H24.7549V114.928Z" fill="#868695"/>
<path d="M28.8585 114.928H24.627V119.159H28.8585V114.928Z" fill="#868695"/>
<path d="M28.7324 119.159V114.928H31.5252C32.3198 114.928 32.9639 115.572 32.9639 116.366V119.159H28.7324Z" fill="#868695"/>
<path d="M49.2539 116.138V117.953C49.2539 118.622 49.7955 119.159 50.4641 119.159H52.2794C52.9522 119.159 53.4896 118.618 53.4896 117.949V116.138C53.4854 115.465 52.9438 114.928 52.2752 114.928H50.4641C49.7955 114.928 49.2539 115.469 49.2539 116.138Z" fill="#868695"/>
<path d="M57.4629 116.138V117.953C57.4629 118.622 58.0045 119.159 58.6731 119.159H60.4884C61.1612 119.159 61.6986 118.618 61.6986 117.949V116.138C61.6944 115.465 61.1528 114.928 60.4842 114.928H58.6731C58.0045 114.928 57.4629 115.469 57.4629 116.138Z" fill="#868695"/>
<path d="M69.7773 116.138V117.953C69.7773 118.622 70.319 119.159 70.9876 119.159H72.8029C73.4757 119.159 74.0131 118.618 74.0131 117.949V116.138C74.0089 115.465 73.4672 114.928 72.7986 114.928H70.9876C70.319 114.928 69.7773 115.469 69.7773 116.138Z" fill="#868695"/>
<path d="M77.9863 116.138V117.953C77.9863 118.622 78.528 119.159 79.1965 119.159H81.0119C81.6847 119.159 82.2221 118.618 82.2221 117.949V116.138C82.2178 115.465 81.6762 114.928 81.0076 114.928H79.1965C78.528 114.928 77.9863 115.469 77.9863 116.138Z" fill="#868695"/>
<path d="M98.6358 114.928H94.4043V119.159H98.6358V114.928Z" fill="#868695"/>
<path d="M102.741 114.928H98.5098V119.159H102.741V114.928Z" fill="#868695"/>
<path d="M106.845 114.928H102.613V119.159H106.845V114.928Z" fill="#868695"/>
<path d="M110.95 114.928H106.719V119.159H110.95V114.928Z" fill="#868695"/>
<path d="M119.159 114.928H114.928V119.159H119.159V114.928Z" fill="#868695"/>
<path d="M123.265 114.928H119.033V119.159H123.265V114.928Z" fill="#868695"/>
<path d="M127.368 114.928H123.137V119.159H127.368V114.928Z" fill="#868695"/>
<path d="M131.474 114.928H127.242V119.159H131.474V114.928Z" fill="#868695"/>
<path d="M135.577 114.928H131.346V119.159H135.577V114.928Z" fill="#868695"/>
<path d="M139.683 114.928H135.451V119.159H139.683V114.928Z" fill="#868695"/>
<path d="M139.555 119.159V114.928H142.347C143.142 114.928 143.786 115.572 143.786 116.366V119.159H139.555Z" fill="#868695"/>
<path d="M151.996 114.928V117.721C151.996 118.515 151.352 119.159 150.557 119.159H149.203C148.409 119.159 147.765 118.515 147.765 117.721V114.928H151.996Z" fill="#868695"/>
<path d="M37.0684 123.264H32.8369V120.471C32.8369 119.676 33.481 119.032 34.2756 119.032H37.0684V123.264Z" fill="#868695"/>
<path d="M41.1729 119.033H36.9414V123.265H41.1729V119.033Z" fill="#868695"/>
<path d="M45.2764 119.033H41.0449V123.265H45.2764V119.033Z" fill="#868695"/>
<path d="M45.1504 123.264V119.032H47.9432C48.7378 119.032 49.3819 119.676 49.3819 120.471V123.264H45.1504Z" fill="#868695"/>
<path d="M72.7188 123.18V123.264H74.0094V121.974H73.9247C73.9247 122.642 73.3831 123.18 72.7188 123.18Z" fill="#868695"/>
<path d="M73.8828 123.264V120.471C73.8828 119.676 74.5269 119.032 75.3215 119.032H76.6756C77.4702 119.032 78.1143 119.676 78.1143 120.471V123.264H73.8828Z" fill="#868695"/>
<path d="M82.0918 120.243V122.059C82.0918 122.727 82.6334 123.265 83.302 123.265H85.1173C85.7901 123.265 86.3275 122.723 86.3275 122.054V120.243C86.3233 119.571 85.7817 119.033 85.1131 119.033H83.302C82.6334 119.033 82.0918 119.575 82.0918 120.243Z" fill="#868695"/>
<path d="M98.6367 119.033V121.826C98.6367 122.621 97.9926 123.265 97.198 123.265H95.8439C95.0493 123.265 94.4052 122.621 94.4052 121.826V119.033H98.6367Z" fill="#868695"/>
<path d="M110.951 119.033V121.826C110.951 122.621 110.307 123.265 109.512 123.265H108.158C107.364 123.265 106.72 122.621 106.72 121.826V119.033H110.951Z" fill="#868695"/>
<path d="M119.159 119.033H114.928V123.265H119.159V119.033Z" fill="#868695"/>
<path d="M135.577 119.033H131.346V123.265H135.577V119.033Z" fill="#868695"/>
<path d="M37.0674 123.137H32.8359V127.368H37.0674V123.137Z" fill="#868695"/>
<path d="M49.2539 127.368V124.575C49.2539 123.781 49.898 123.137 50.6926 123.137H52.0467C52.8413 123.137 53.4854 123.781 53.4854 124.575V127.368H49.2539Z" fill="#868695"/>
<path d="M60.4043 127.284V127.369H61.6949V126.078H61.6103C61.6103 126.747 61.0686 127.284 60.4043 127.284Z" fill="#868695"/>
<path d="M61.5684 127.368V124.575C61.5684 123.781 62.2125 123.137 63.0071 123.137H64.3612C65.1557 123.137 65.7999 123.781 65.7999 124.575V127.368H61.5684Z" fill="#868695"/>
<path d="M74.0098 127.368H71.217C70.4224 127.368 69.7783 126.724 69.7783 125.929V124.575C69.7783 123.781 70.4224 123.137 71.217 123.137H74.0098V127.368Z" fill="#868695"/>
<path d="M78.1143 123.137H73.8828V127.368H78.1143V123.137Z" fill="#868695"/>
<path d="M90.4277 127.368H86.1962V124.575C86.1962 123.781 86.8404 123.137 87.6349 123.137H90.4277V127.368Z" fill="#868695"/>
<path d="M90.3008 127.368V123.137H93.0936C93.8882 123.137 94.5323 123.781 94.5323 124.575V127.368H90.3008Z" fill="#868695"/>
<path d="M98.5098 124.347V126.162C98.5098 126.831 99.0514 127.368 99.72 127.368H101.535C102.208 127.368 102.746 126.827 102.746 126.158V124.347C102.741 123.674 102.2 123.137 101.531 123.137H99.72C99.0514 123.137 98.5098 123.678 98.5098 124.347Z" fill="#868695"/>
<path d="M119.159 123.137H114.928V127.368H119.159V123.137Z" fill="#868695"/>
<path d="M123.137 124.347V126.162C123.137 126.831 123.678 127.368 124.347 127.368H126.162C126.835 127.368 127.372 126.827 127.372 126.158V124.347C127.368 123.674 126.827 123.137 126.158 123.137H124.347C123.678 123.137 123.137 123.678 123.137 124.347Z" fill="#868695"/>
<path d="M135.577 123.137H131.346V127.368H135.577V123.137Z" fill="#868695"/>
<path d="M135.451 127.368V123.137H138.244C139.039 123.137 139.683 123.781 139.683 124.575V127.368H135.451Z" fill="#868695"/>
<path d="M147.764 124.347V126.162C147.764 126.831 148.305 127.368 148.974 127.368H150.789C151.462 127.368 151.999 126.827 151.999 126.158V124.347C151.995 123.674 151.454 123.137 150.785 123.137H148.974C148.305 123.137 147.764 123.678 147.764 124.347Z" fill="#868695"/>
<path d="M37.0674 127.241H32.8359V131.473H37.0674V127.241Z" fill="#868695"/>
<path d="M48.0918 131.388V131.472H49.3824V130.182H49.2978C49.2978 130.85 48.7561 131.388 48.0918 131.388Z" fill="#868695"/>
<path d="M53.4854 127.241H49.2539V131.473H53.4854V127.241Z" fill="#868695"/>
<path d="M61.6953 131.473H58.9025C58.1079 131.473 57.4638 130.829 57.4638 130.034V128.68C57.4638 127.885 58.1079 127.241 58.9025 127.241H61.6953V131.473Z" fill="#868695"/>
<path d="M65.7999 127.241H61.5684V131.473H65.7999V127.241Z" fill="#868695"/>
<path d="M65.6738 131.473V127.241H68.4666C69.2612 127.241 69.9053 127.885 69.9053 128.68V131.473H65.6738Z" fill="#868695"/>
<path d="M78.1152 127.241V130.034C78.1152 130.829 77.4711 131.473 76.6765 131.473H75.3224C74.5279 131.473 73.8837 130.829 73.8837 130.034V127.241H78.1152Z" fill="#868695"/>
<path d="M90.4268 127.241H86.1953V131.473H90.4268V127.241Z" fill="#868695"/>
<path d="M106.719 128.451V130.267C106.719 130.935 107.26 131.473 107.929 131.473H109.744C110.417 131.473 110.954 130.931 110.954 130.263V128.451C110.95 127.779 110.409 127.241 109.74 127.241H107.929C107.26 127.241 106.719 127.783 106.719 128.451Z" fill="#868695"/>
<path d="M113.764 131.388V131.472H115.054V130.182H114.97C114.97 130.85 114.428 131.388 113.764 131.388Z" fill="#868695"/>
<path d="M119.159 127.241H114.928V131.473H119.159V127.241Z" fill="#868695"/>
<path d="M130.182 131.388V131.472H131.472V130.182H131.388C131.388 130.85 130.846 131.388 130.182 131.388Z" fill="#868695"/>
<path d="M135.577 127.241H131.346V131.473H135.577V127.241Z" fill="#868695"/>
<path d="M143.66 128.451V130.267C143.66 130.935 144.202 131.473 144.87 131.473H146.686C147.358 131.473 147.896 130.931 147.896 130.263V128.451C147.892 127.779 147.35 127.241 146.681 127.241H144.87C144.202 127.241 143.66 127.783 143.66 128.451Z" fill="#868695"/>
<path d="M37.0674 131.346H32.8359V135.577H37.0674V131.346Z" fill="#868695"/>
<path d="M41.1729 131.346H36.9414V135.577H41.1729V131.346Z" fill="#868695"/>
<path d="M45.2764 131.346H41.0449V135.577H45.2764V131.346Z" fill="#868695"/>
<path d="M49.3819 131.346H45.1504V135.577H49.3819V131.346Z" fill="#868695"/>
<path d="M49.2539 131.346H53.4854V134.138C53.4854 134.933 52.8413 135.577 52.0467 135.577H49.2539V131.346Z" fill="#868695"/>
<path d="M65.7999 131.346H61.5684V135.577H65.7999V131.346Z" fill="#868695"/>
<path d="M90.4277 131.346V134.138C90.4277 134.933 89.7836 135.577 88.989 135.577H87.6349C86.8404 135.577 86.1962 134.933 86.1962 134.138V131.346H90.4277Z" fill="#868695"/>
<path d="M102.742 135.577H99.9494C99.1548 135.577 98.5107 134.933 98.5107 134.138V132.784C98.5107 131.99 99.1548 131.346 99.9494 131.346H102.742V135.577Z" fill="#868695"/>
<path d="M102.613 135.577V131.346H105.406C106.201 131.346 106.845 131.99 106.845 132.784V135.577H102.613Z" fill="#868695"/>
<path d="M115.057 135.577H110.825V132.784C110.825 131.99 111.469 131.346 112.264 131.346H115.057V135.577Z" fill="#868695"/>
<path d="M119.159 131.346H114.928V135.577H119.159V131.346Z" fill="#868695"/>
<path d="M123.265 131.346H119.033V135.577H123.265V131.346Z" fill="#868695"/>
<path d="M127.368 131.346H123.137V135.577H127.368V131.346Z" fill="#868695"/>
<path d="M131.474 131.346H127.242V135.577H131.474V131.346Z" fill="#868695"/>
<path d="M135.577 131.346H131.346V135.577H135.577V131.346Z" fill="#868695"/>
<path d="M139.555 132.556V134.371C139.555 135.04 140.096 135.577 140.765 135.577H142.58C143.253 135.577 143.79 135.036 143.79 134.367V132.556C143.786 131.883 143.245 131.346 142.576 131.346H140.765C140.096 131.346 139.555 131.887 139.555 132.556Z" fill="#868695"/>
<path d="M147.764 132.556V134.371C147.764 135.04 148.305 135.577 148.974 135.577H150.789C151.462 135.577 151.999 135.036 151.999 134.367V132.556C151.995 131.883 151.454 131.346 150.785 131.346H148.974C148.305 131.346 147.764 131.887 147.764 132.556Z" fill="#868695"/>
<path d="M37.0674 135.45H32.8359V139.682H37.0674V135.45Z" fill="#868695"/>
<path d="M36.9414 135.45H41.1729V138.243C41.1729 139.038 40.5288 139.682 39.7342 139.682H36.9414V135.45Z" fill="#868695"/>
<path d="M49.3828 135.45V138.243C49.3828 139.038 48.7387 139.682 47.9441 139.682H46.59C45.7954 139.682 45.1513 139.038 45.1513 138.243V135.45H49.3828Z" fill="#868695"/>
<path d="M56.3008 139.598V139.682H57.5914V138.392H57.5068C57.5068 139.06 56.9651 139.598 56.3008 139.598Z" fill="#868695"/>
<path d="M61.6953 139.682H57.4638V136.889C57.4638 136.094 58.1079 135.45 58.9025 135.45H61.6953V139.682Z" fill="#868695"/>
<path d="M65.7999 135.45H61.5684V139.682H65.7999V135.45Z" fill="#868695"/>
<path d="M82.0918 136.66V138.476C82.0918 139.144 82.6334 139.682 83.302 139.682H85.1173C85.7901 139.682 86.3275 139.14 86.3275 138.471V136.66C86.3233 135.988 85.7817 135.45 85.1131 135.45H83.302C82.6334 135.45 82.0918 135.992 82.0918 136.66Z" fill="#868695"/>
<path d="M94.4043 136.66V138.476C94.4043 139.144 94.9459 139.682 95.6145 139.682H97.4298C98.1026 139.682 98.64 139.14 98.64 138.471V136.66C98.6358 135.988 98.0942 135.45 97.4256 135.45H95.6145C94.9459 135.45 94.4043 135.992 94.4043 136.66Z" fill="#868695"/>
<path d="M106.845 135.45H102.613V139.682H106.845V135.45Z" fill="#868695"/>
<path d="M109.66 139.598V139.682H110.951V138.392H110.866C110.866 139.06 110.325 139.598 109.66 139.598Z" fill="#868695"/>
<path d="M115.054 135.45H110.822V139.682H115.054V135.45Z" fill="#868695"/>
<path d="M114.928 135.45H119.159V138.243C119.159 139.038 118.515 139.682 117.721 139.682H114.928V135.45Z" fill="#868695"/>
<path d="M127.369 135.45V139.682H124.576C123.782 139.682 123.138 139.038 123.138 138.243V135.45H127.369Z" fill="#868695"/>
<path d="M131.474 135.45H127.242V139.682H131.474V135.45Z" fill="#868695"/>
<path d="M135.577 135.45H131.346V139.682H135.577V135.45Z" fill="#868695"/>
<path d="M135.451 139.682V135.45H138.244C139.039 135.45 139.683 136.094 139.683 136.889V139.682H135.451Z" fill="#868695"/>
<path d="M143.66 136.66V138.476C143.66 139.144 144.202 139.682 144.87 139.682H146.686C147.358 139.682 147.896 139.14 147.896 138.471V136.66C147.892 135.988 147.35 135.45 146.681 135.45H144.87C144.202 135.45 143.66 135.992 143.66 136.66Z" fill="#868695"/>
<path d="M37.0674 139.556H32.8359V143.787H37.0674V139.556Z" fill="#868695"/>
<path d="M52.1953 143.702V143.787H53.4859V142.496H53.4013C53.4013 143.165 52.8597 143.702 52.1953 143.702Z" fill="#868695"/>
<path d="M57.5918 143.787H53.3603V140.994C53.3603 140.2 54.0044 139.556 54.799 139.556H57.5918V143.787Z" fill="#868695"/>
<path d="M61.6944 139.556H57.4629V143.787H61.6944V139.556Z" fill="#868695"/>
<path d="M61.5684 139.556H65.7999V142.348C65.7999 143.143 65.1557 143.787 64.3612 143.787H61.5684V139.556Z" fill="#868695"/>
<path d="M68.6133 143.702V143.787H69.9039V142.496H69.8193C69.8193 143.165 69.2776 143.702 68.6133 143.702Z" fill="#868695"/>
<path d="M74.0098 143.787H69.7783V140.994C69.7783 140.2 70.4224 139.556 71.217 139.556H74.0098V143.787Z" fill="#868695"/>
<path d="M78.1143 139.556H73.8828V143.787H78.1143V139.556Z" fill="#868695"/>
<path d="M77.9863 143.787V139.556H80.7791C81.5737 139.556 82.2178 140.2 82.2178 140.994V143.787H77.9863Z" fill="#868695"/>
<path d="M89.1367 143.702V143.787H90.4273V142.496H90.3427C90.3427 143.165 89.8011 143.702 89.1367 143.702Z" fill="#868695"/>
<path d="M90.3008 143.787V140.994C90.3008 140.2 90.9449 139.556 91.7395 139.556H93.0936C93.8882 139.556 94.5323 140.2 94.5323 140.994V143.787H90.3008Z" fill="#868695"/>
<path d="M102.742 143.787H99.9494C99.1548 143.787 98.5107 143.143 98.5107 142.348V140.994C98.5107 140.2 99.1548 139.556 99.9494 139.556H102.742V143.787Z" fill="#868695"/>
<path d="M106.845 139.556H102.613V143.787H106.845V139.556Z" fill="#868695"/>
<path d="M110.95 139.556H106.719V143.787H110.95V139.556Z" fill="#868695"/>
<path d="M110.822 139.556H115.054V142.348C115.054 143.143 114.41 143.787 113.615 143.787H110.822V139.556Z" fill="#868695"/>
<path d="M117.869 143.702V143.787H119.16V142.496H119.075C119.075 143.165 118.533 143.702 117.869 143.702Z" fill="#868695"/>
<path d="M119.033 143.787V140.994C119.033 140.2 119.677 139.556 120.472 139.556H121.826C122.621 139.556 123.265 140.2 123.265 140.994V143.787H119.033Z" fill="#868695"/>
<path d="M126.078 143.702V143.787H127.369V142.496H127.284C127.284 143.165 126.742 143.702 126.078 143.702Z" fill="#868695"/>
<path d="M131.474 139.556H127.242V143.787H131.474V139.556Z" fill="#868695"/>
<path d="M147.764 143.787V140.994C147.764 140.2 148.408 139.556 149.202 139.556H150.556C151.351 139.556 151.995 140.2 151.995 140.994V143.787H147.764Z" fill="#868695"/>
<path d="M37.0684 143.659V147.891H34.2756C33.481 147.891 32.8369 147.247 32.8369 146.452V143.659H37.0684Z" fill="#868695"/>
<path d="M41.1729 143.659H36.9414V147.891H41.1729V143.659Z" fill="#868695"/>
<path d="M41.0449 147.891V143.659H43.8377C44.6323 143.659 45.2764 144.303 45.2764 145.098V147.891H41.0449Z" fill="#868695"/>
<path d="M53.4863 147.891H50.6935C49.899 147.891 49.2548 147.246 49.2548 146.452V145.098C49.2548 144.303 49.899 143.659 50.6935 143.659H53.4863V147.891Z" fill="#868695"/>
<path d="M57.5909 143.659H53.3594V147.891H57.5909V143.659Z" fill="#868695"/>
<path d="M61.6944 143.659H57.4629V147.891H61.6944V143.659Z" fill="#868695"/>
<path d="M69.9062 147.891H67.1135C66.3189 147.891 65.6747 147.246 65.6747 146.452V145.098C65.6747 144.303 66.3189 143.659 67.1135 143.659H69.9062V147.891Z" fill="#868695"/>
<path d="M74.0089 143.659H69.7773V147.891H74.0089V143.659Z" fill="#868695"/>
<path d="M82.2178 143.659H77.9863V147.891H82.2178V143.659Z" fill="#868695"/>
<path d="M86.3233 143.659H82.0918V147.891H86.3233V143.659Z" fill="#868695"/>
<path d="M90.4268 143.659H86.1953V147.891H90.4268V143.659Z" fill="#868695"/>
<path d="M94.5323 143.659H90.3008V147.891H94.5323V143.659Z" fill="#868695"/>
<path d="M94.4043 147.891V143.659H97.1971C97.9917 143.659 98.6358 144.303 98.6358 145.098V147.891H94.4043Z" fill="#868695"/>
<path d="M110.95 143.659H106.719V147.891H110.95V143.659Z" fill="#868695"/>
<path d="M119.16 147.891H116.367C115.573 147.891 114.929 147.246 114.929 146.452V145.098C114.929 144.303 115.573 143.659 116.367 143.659H119.16V147.891Z" fill="#868695"/>
<path d="M123.265 143.659H119.033V147.891H123.265V143.659Z" fill="#868695"/>
<path d="M127.368 143.659H123.137V147.891H127.368V143.659Z" fill="#868695"/>
<path d="M131.474 143.659H127.242V147.891H131.474V143.659Z" fill="#868695"/>
<path d="M146.602 147.807V147.891H147.892V146.601H147.808C147.808 147.269 147.266 147.807 146.602 147.807Z" fill="#868695"/>
<path d="M151.995 143.659H147.764V147.891H151.995V143.659Z" fill="#868695"/>
<path d="M41.1738 147.765V151.996H38.381C37.5865 151.996 36.9423 151.352 36.9423 150.557V147.765H41.1738Z" fill="#868695"/>
<path d="M41.0449 147.765H45.2764V150.557C45.2764 151.352 44.6323 151.996 43.8377 151.996H41.0449V147.765Z" fill="#868695"/>
<path d="M61.6953 147.765V150.557C61.6953 151.352 61.0512 151.996 60.2566 151.996H58.9025C58.1079 151.996 57.4638 151.352 57.4638 150.557V147.765H61.6953Z" fill="#868695"/>
<path d="M74.0098 147.765V151.996H71.217C70.4224 151.996 69.7783 151.352 69.7783 150.557V147.765H74.0098Z" fill="#868695"/>
<path d="M78.1143 147.765H73.8828V151.996H78.1143V147.765Z" fill="#868695"/>
<path d="M77.9863 147.765H82.2178V150.557C82.2178 151.352 81.5737 151.996 80.7791 151.996H77.9863V147.765Z" fill="#868695"/>
<path d="M94.5332 147.765V151.996H91.7404C90.9458 151.996 90.3017 151.352 90.3017 150.557V147.765H94.5332Z" fill="#868695"/>
<path d="M98.6358 147.765H94.4043V151.996H98.6358V147.765Z" fill="#868695"/>
<path d="M102.741 147.765H98.5098V151.996H102.741V147.765Z" fill="#868695"/>
<path d="M106.845 147.765H102.613V151.996H106.845V147.765Z" fill="#868695"/>
<path d="M106.719 147.765H110.95V150.557C110.95 151.352 110.306 151.996 109.512 151.996H106.719V147.765Z" fill="#868695"/>
<path d="M123.266 147.765V151.996H120.473C119.678 151.996 119.034 151.352 119.034 150.557V147.765H123.266Z" fill="#868695"/>
<path d="M127.368 147.765H123.137V151.996H127.368V147.765Z" fill="#868695"/>
<path d="M127.242 147.765H131.474V150.557C131.474 151.352 130.83 151.996 130.035 151.996H127.242V147.765Z" fill="#868695"/>
<path d="M143.787 151.996H140.994C140.2 151.996 139.556 151.352 139.556 150.557V149.203C139.556 148.409 140.2 147.765 140.994 147.765H143.787V151.996Z" fill="#868695"/>
<path d="M147.892 147.765H143.66V151.996H147.892V147.765Z" fill="#868695"/>
<path d="M147.764 147.765H151.995V150.557C151.995 151.352 151.351 151.996 150.556 151.996H147.764V147.765Z" fill="#868695"/>
<path fill-rule="evenodd" clip-rule="evenodd" d="M25.3891 19.3519V10.2681C25.3891 6.23607 24.8406 5.25227 24.6047 5.01583C24.3683 4.77993 23.3845 4.23143 19.3519 4.23143H10.2686C6.23607 4.23143 5.25227 4.77993 5.01636 5.01583C4.78046 5.25227 4.23143 6.23607 4.23143 10.2681V19.3519C4.23143 23.3845 4.78046 24.3683 5.01636 24.6047C5.25227 24.8401 6.23607 25.3891 10.2686 25.3891H19.3519C23.3845 25.3891 24.3683 24.8401 24.6047 24.6047C24.8406 24.3683 25.3891 23.3845 25.3891 19.3519ZM19.3519 0C27.6461 0 29.6206 1.97449 29.6206 10.2681C29.6206 18.5622 29.6206 11.0583 29.6206 19.3519C29.6206 27.6461 27.6461 29.6206 19.3519 29.6206C11.0583 29.6206 18.5622 29.6206 10.2686 29.6206C1.97449 29.6206 0 27.6461 0 19.3519C0 11.0583 0 14.8999 0 10.2681C0 1.97449 1.97449 0 10.2686 0C18.5622 0 11.0583 0 19.3519 0ZM16.7566 8.46302C20.3114 8.46302 21.1575 9.30967 21.1575 12.8634C21.1575 16.4182 21.1575 13.2024 21.1575 16.7566C21.1575 20.3109 20.3114 21.1575 16.7566 21.1575C13.2024 21.1575 16.4182 21.1575 12.8639 21.1575C9.30967 21.1575 8.46302 20.3109 8.46302 16.7566C8.46302 13.2024 8.46302 14.8486 8.46302 12.8634C8.46302 9.30967 9.30967 8.46302 12.8639 8.46302C16.4182 8.46302 13.2024 8.46302 16.7566 8.46302Z" fill="#868695"/>
<path fill-rule="evenodd" clip-rule="evenodd" d="M147.256 19.3519V10.2681C147.256 6.23607 146.708 5.25227 146.472 5.01583C146.235 4.77993 145.252 4.23143 141.219 4.23143H132.136C128.103 4.23143 127.119 4.77993 126.884 5.01583C126.648 5.25227 126.099 6.23607 126.099 10.2681V19.3519C126.099 23.3845 126.648 24.3683 126.884 24.6047C127.119 24.8401 128.103 25.3891 132.136 25.3891H141.219C145.252 25.3891 146.235 24.8401 146.472 24.6047C146.708 24.3683 147.256 23.3845 147.256 19.3519ZM141.219 0C149.513 0 151.488 1.97449 151.488 10.2681C151.488 18.5622 151.488 11.0583 151.488 19.3519C151.488 27.6461 149.513 29.6206 141.219 29.6206C132.926 29.6206 140.429 29.6206 132.136 29.6206C123.842 29.6206 121.867 27.6461 121.867 19.3519C121.867 11.0583 121.867 14.8999 121.867 10.2681C121.867 1.97449 123.842 0 132.136 0C140.429 0 132.926 0 141.219 0ZM138.624 8.46302C142.179 8.46302 143.025 9.30967 143.025 12.8634C143.025 16.4182 143.025 13.2024 143.025 16.7566C143.025 20.3109 142.179 21.1575 138.624 21.1575C135.07 21.1575 138.285 21.1575 134.731 21.1575C131.177 21.1575 130.33 20.3109 130.33 16.7566C130.33 13.2024 130.33 14.8486 130.33 12.8634C130.33 9.30967 131.177 8.46302 134.731 8.46302C138.285 8.46302 135.07 8.46302 138.624 8.46302Z" fill="#868695"/>
<path fill-rule="evenodd" clip-rule="evenodd" d="M25.3891 141.219V132.135C25.3891 128.103 24.8406 127.119 24.6047 126.883C24.3683 126.647 23.3845 126.099 19.3519 126.099H10.2686C6.23607 126.099 5.25227 126.647 5.01636 126.883C4.78046 127.119 4.23143 128.103 4.23143 132.135V141.219C4.23143 145.252 4.78046 146.235 5.01636 146.472C5.25227 146.707 6.23607 147.256 10.2686 147.256H19.3519C23.3845 147.256 24.3683 146.707 24.6047 146.472C24.8406 146.235 25.3891 145.252 25.3891 141.219ZM19.3519 121.867C27.6461 121.867 29.6206 123.842 29.6206 132.135C29.6206 140.429 29.6206 132.926 29.6206 141.219C29.6206 149.513 27.6461 151.488 19.3519 151.488C11.0583 151.488 18.5622 151.488 10.2686 151.488C1.97449 151.488 0 149.513 0 141.219C0 132.926 0 136.767 0 132.135C0 123.842 1.97449 121.867 10.2686 121.867C18.5622 121.867 11.0583 121.867 19.3519 121.867ZM16.7566 130.33C20.3114 130.33 21.1575 131.177 21.1575 134.731C21.1575 138.285 21.1575 135.07 21.1575 138.624C21.1575 142.178 20.3114 143.025 16.7566 143.025C13.2024 143.025 16.4182 143.025 12.8639 143.025C9.30967 143.025 8.46302 142.178 8.46302 138.624C8.46302 135.07 8.46302 136.716 8.46302 134.731C8.46302 131.177 9.30967 130.33 12.8639 130.33C16.4182 130.33 13.2024 130.33 16.7566 130.33Z" fill="#868695"/>
<g clip-path="url(#clip1_8312_21363)">
<path d="M60 75.0228C60 69.7643 60 67.1351 61.0234 65.1266C61.9235 63.3599 63.3599 61.9235 65.1266 61.0234C67.1351 60 69.7643 60 75.0228 60H76.9772C82.2357 60 84.8649 60 86.8734 61.0234C88.6401 61.9235 90.0765 63.3599 90.9766 65.1266C92 67.1351 92 69.7643 92 75.0228V76.9772C92 82.2357 92 84.8649 90.9766 86.8734C90.0765 88.6401 88.6401 90.0765 86.8734 90.9766C84.8649 92 82.2357 92 76.9772 92H75.0228C69.7643 92 67.1351 92 65.1266 90.9766C63.3599 90.0765 61.9235 88.6401 61.0234 86.8734C60 84.8649 60 82.2357 60 76.9772V75.0228Z" fill="#868695"/>
<path d="M83.2296 71.8723C82.2364 71.8723 81.3383 72.1735 80.5776 72.6859V68H78.4592V76.6427C78.4592 79.2736 80.5987 81.3867 83.219 81.3867C85.8393 81.3867 88 79.2842 88 76.6163C88 73.9485 85.8816 71.8723 83.2296 71.8723ZM73.6254 77.2503L71.6866 72.2052H70.2021L68.2527 77.2503L66.3033 72.2052H64L67.4074 81.0751H68.8919L70.9364 75.7922L72.9914 81.0751H74.4759L77.8728 72.2052H75.5747L73.6254 77.2503ZM83.219 79.2683C81.7821 79.2683 80.5776 78.1219 80.5776 76.6269C80.5776 75.1318 81.7134 73.996 83.2296 73.996C84.7458 73.996 85.8816 75.1794 85.8816 76.6269C85.8816 78.0744 84.6718 79.2683 83.2137 79.2683H83.219Z" fill="white"/>
</g>
</g>
<defs>
<clipPath id="clip0_8312_21363">
<rect width="152" height="152" fill="white"/>
</clipPath>
<clipPath id="clip1_8312_21363">
<rect width="32" height="32" fill="white" transform="translate(60 60)"/>
</clipPath>
</defs>
</svg>
